<svg xmlns:xlink="http://www.w3.org/1999/xlink" xmlns="http://www.w3.org/2000/svg" width="343"
    height="523" viewBox="0 0 343 523" fill="none">


    <path d="M178 93C178 175.452 98 139.312 98 196.44L98.0003 469.5" stroke="#403D37"
        stroke-Width="8" stroke-Linecap="round" stroke-Linejoin="round" />
    <defs>
        <linearGradient id="shimmerGradient" gradientUnits="userSpaceOnUse" x1="0%" y1="0%"
            x2="100%" y2="0%">
            <stop offset="0%" stop-color="#3B82F6" />
            <stop offset="25%" stop-color="#3B82F6" />
            <stop offset="50%" stop-color="#ffffff" />
            <stop offset="75%" stop-color="#3B82F6" />
            <stop offset="100%" stop-color="#3B82F6" />
            <animate attributeName="x1" from="-100%" to="100%" dur="2s" repeatCount="indefinite" />
            <animate attributeName="x2" from="0%" to="200%" dur="2s" repeatCount="indefinite" />
        </linearGradient>
    </defs>
    <path d="M177 93C177 175.447 257 139.309 257 196.434L257 326" stroke="url(#shimmerGradient)"
        stroke-Width="8" stroke-Linecap="round" stroke-Linejoin="round" />


    <path
        d="M25.8094 224.636V233H24.7174V229.208H20.4574V233H19.3654V224.636H20.4574V228.308H24.7174V224.636H25.8094ZM30.542 233.108C29.926 233.108 29.366 232.968 28.862 232.688C28.366 232.408 27.974 232.012 27.686 231.5C27.406 230.98 27.266 230.38 27.266 229.7C27.266 229.028 27.41 228.436 27.698 227.924C27.994 227.404 28.394 227.008 28.898 226.736C29.402 226.456 29.966 226.316 30.59 226.316C31.214 226.316 31.778 226.456 32.282 226.736C32.786 227.008 33.182 227.4 33.47 227.912C33.766 228.424 33.914 229.02 33.914 229.7C33.914 230.38 33.762 230.98 33.458 231.5C33.162 232.012 32.758 232.408 32.246 232.688C31.734 232.968 31.166 233.108 30.542 233.108ZM30.542 232.148C30.934 232.148 31.302 232.056 31.646 231.872C31.99 231.688 32.266 231.412 32.474 231.044C32.69 230.676 32.798 230.228 32.798 229.7C32.798 229.172 32.694 228.724 32.486 228.356C32.278 227.988 32.006 227.716 31.67 227.54C31.334 227.356 30.97 227.264 30.578 227.264C30.178 227.264 29.81 227.356 29.474 227.54C29.146 227.716 28.882 227.988 28.682 228.356C28.482 228.724 28.382 229.172 28.382 229.7C28.382 230.236 28.478 230.688 28.67 231.056C28.87 231.424 29.134 231.7 29.462 231.884C29.79 232.06 30.15 232.148 30.542 232.148ZM43.2578 226.304C43.7698 226.304 44.2258 226.412 44.6258 226.628C45.0258 226.836 45.3418 227.152 45.5738 227.576C45.8058 228 45.9218 228.516 45.9218 229.124V233H44.8418V229.28C44.8418 228.624 44.6778 228.124 44.3498 227.78C44.0298 227.428 43.5938 227.252 43.0418 227.252C42.4738 227.252 42.0218 227.436 41.6858 227.804C41.3498 228.164 41.1818 228.688 41.1818 229.376V233H40.1018V229.28C40.1018 228.624 39.9378 228.124 39.6098 227.78C39.2898 227.428 38.8538 227.252 38.3018 227.252C37.7338 227.252 37.2818 227.436 36.9458 227.804C36.6098 228.164 36.4418 228.688 36.4418 229.376V233H35.3498V226.424H36.4418V227.372C36.6578 227.028 36.9458 226.764 37.3058 226.58C37.6738 226.396 38.0778 226.304 38.5178 226.304C39.0698 226.304 39.5578 226.428 39.9818 226.676C40.4058 226.924 40.7218 227.288 40.9298 227.768C41.1138 227.304 41.4178 226.944 41.8418 226.688C42.2658 226.432 42.7378 226.304 43.2578 226.304ZM53.7131 229.46C53.7131 229.668 53.7011 229.888 53.6771 230.12H48.4211C48.4611 230.768 48.6811 231.276 49.0811 231.644C49.4891 232.004 49.9811 232.184 50.5571 232.184C51.0291 232.184 51.4211 232.076 51.7331 231.86C52.0531 231.636 52.2771 231.34 52.4051 230.972H53.5811C53.4051 231.604 53.0531 232.12 52.5251 232.52C51.9971 232.912 51.3411 233.108 50.5571 233.108C49.9331 233.108 49.3731 232.968 48.8771 232.688C48.3891 232.408 48.0051 232.012 47.7251 231.5C47.4451 230.98 47.3051 230.38 47.3051 229.7C47.3051 229.02 47.4411 228.424 47.7131 227.912C47.9851 227.4 48.3651 227.008 48.8531 226.736C49.3491 226.456 49.9171 226.316 50.5571 226.316C51.1811 226.316 51.7331 226.452 52.2131 226.724C52.6931 226.996 53.0611 227.372 53.3171 227.852C53.5811 228.324 53.7131 228.86 53.7131 229.46ZM52.5851 229.232C52.5851 228.816 52.4931 228.46 52.3091 228.164C52.1251 227.86 51.8731 227.632 51.5531 227.48C51.2411 227.32 50.8931 227.24 50.5091 227.24C49.9571 227.24 49.4851 227.416 49.0931 227.768C48.7091 228.12 48.4891 228.608 48.4331 229.232H52.5851ZM56.2465 227.636C56.4625 227.26 56.7825 226.948 57.2065 226.7C57.6385 226.444 58.1385 226.316 58.7065 226.316C59.2905 226.316 59.8185 226.456 60.2905 226.736C60.7705 227.016 61.1465 227.412 61.4185 227.924C61.6905 228.428 61.8265 229.016 61.8265 229.688C61.8265 230.352 61.6905 230.944 61.4185 231.464C61.1465 231.984 60.7705 232.388 60.2905 232.676C59.8185 232.964 59.2905 233.108 58.7065 233.108C58.1465 233.108 57.6505 232.984 57.2185 232.736C56.7945 232.48 56.4705 232.164 56.2465 231.788V236.12H55.1545V226.424H56.2465V227.636ZM60.7105 229.688C60.7105 229.192 60.6105 228.76 60.4105 228.392C60.2105 228.024 59.9385 227.744 59.5945 227.552C59.2585 227.36 58.8865 227.264 58.4785 227.264C58.0785 227.264 57.7065 227.364 57.3625 227.564C57.0265 227.756 56.7545 228.04 56.5465 228.416C56.3465 228.784 56.2465 229.212 56.2465 229.7C56.2465 230.196 56.3465 230.632 56.5465 231.008C56.7545 231.376 57.0265 231.66 57.3625 231.86C57.7065 232.052 58.0785 232.148 58.4785 232.148C58.8865 232.148 59.2585 232.052 59.5945 231.86C59.9385 231.66 60.2105 231.376 60.4105 231.008C60.6105 230.632 60.7105 230.192 60.7105 229.688ZM62.8558 229.688C62.8558 229.016 62.9918 228.428 63.2638 227.924C63.5358 227.412 63.9078 227.016 64.3798 226.736C64.8598 226.456 65.3918 226.316 65.9758 226.316C66.5518 226.316 67.0518 226.44 67.4758 226.688C67.8998 226.936 68.2158 227.248 68.4238 227.624V226.424H69.5278V233H68.4238V231.776C68.2078 232.16 67.8838 232.48 67.4518 232.736C67.0278 232.984 66.5318 233.108 65.9638 233.108C65.3798 233.108 64.8518 232.964 64.3798 232.676C63.9078 232.388 63.5358 231.984 63.2638 231.464C62.9918 230.944 62.8558 230.352 62.8558 229.688ZM68.4238 229.7C68.4238 229.204 68.3238 228.772 68.1238 228.404C67.9238 228.036 67.6518 227.756 67.3078 227.564C66.9718 227.364 66.5998 227.264 66.1918 227.264C65.7838 227.264 65.4118 227.36 65.0758 227.552C64.7398 227.744 64.4718 228.024 64.2718 228.392C64.0718 228.76 63.9718 229.192 63.9718 229.688C63.9718 230.192 64.0718 230.632 64.2718 231.008C64.4718 231.376 64.7398 231.66 65.0758 231.86C65.4118 232.052 65.7838 232.148 66.1918 232.148C66.5998 232.148 66.9718 232.052 67.3078 231.86C67.6518 231.66 67.9238 231.376 68.1238 231.008C68.3238 230.632 68.4238 230.196 68.4238 229.7ZM74.0852 226.316C74.6532 226.316 75.1492 226.44 75.5732 226.688C76.0052 226.936 76.3252 227.248 76.5332 227.624V226.424H77.6372V233.144C77.6372 233.744 77.5092 234.276 77.2532 234.74C76.9972 235.212 76.6292 235.58 76.1492 235.844C75.6772 236.108 75.1252 236.24 74.4932 236.24C73.6292 236.24 72.9092 236.036 72.3332 235.628C71.7572 235.22 71.4172 234.664 71.3132 233.96H72.3932C72.5132 234.36 72.7612 234.68 73.1372 234.92C73.5132 235.168 73.9652 235.292 74.4932 235.292C75.0932 235.292 75.5812 235.104 75.9572 234.728C76.3412 234.352 76.5332 233.824 76.5332 233.144V231.764C76.3172 232.148 75.9972 232.468 75.5732 232.724C75.1492 232.98 74.6532 233.108 74.0852 233.108C73.5012 233.108 72.9692 232.964 72.4892 232.676C72.0172 232.388 71.6452 231.984 71.3732 231.464C71.1012 230.944 70.9652 230.352 70.9652 229.688C70.9652 229.016 71.1012 228.428 71.3732 227.924C71.6452 227.412 72.0172 227.016 72.4892 226.736C72.9692 226.456 73.5012 226.316 74.0852 226.316ZM76.5332 229.7C76.5332 229.204 76.4332 228.772 76.2332 228.404C76.0332 228.036 75.7612 227.756 75.4172 227.564C75.0812 227.364 74.7092 227.264 74.3012 227.264C73.8932 227.264 73.5212 227.36 73.1852 227.552C72.8492 227.744 72.5812 228.024 72.3812 228.392C72.1812 228.76 72.0812 229.192 72.0812 229.688C72.0812 230.192 72.1812 230.632 72.3812 231.008C72.5812 231.376 72.8492 231.66 73.1852 231.86C73.5212 232.052 73.8932 232.148 74.3012 232.148C74.7092 232.148 75.0812 232.052 75.4172 231.86C75.7612 231.66 76.0332 231.376 76.2332 231.008C76.4332 230.632 76.5332 230.196 76.5332 229.7ZM85.4826 229.46C85.4826 229.668 85.4706 229.888 85.4466 230.12H80.1906C80.2306 230.768 80.4506 231.276 80.8506 231.644C81.2586 232.004 81.7506 232.184 82.3266 232.184C82.7986 232.184 83.1906 232.076 83.5026 231.86C83.8226 231.636 84.0466 231.34 84.1746 230.972H85.3506C85.1746 231.604 84.8226 232.12 84.2946 232.52C83.7666 232.912 83.1106 233.108 82.3266 233.108C81.7026 233.108 81.1426 232.968 80.6466 232.688C80.1586 232.408 79.7746 232.012 79.4946 231.5C79.2146 230.98 79.0746 230.38 79.0746 229.7C79.0746 229.02 79.2106 228.424 79.4826 227.912C79.7546 227.4 80.1346 227.008 80.6226 226.736C81.1186 226.456 81.6866 226.316 82.3266 226.316C82.9506 226.316 83.5026 226.452 83.9826 226.724C84.4626 226.996 84.8306 227.372 85.0866 227.852C85.3506 228.324 85.4826 228.86 85.4826 229.46ZM84.3546 229.232C84.3546 228.816 84.2626 228.46 84.0786 228.164C83.8946 227.86 83.6426 227.632 83.3226 227.48C83.0106 227.32 82.6626 227.24 82.2786 227.24C81.7266 227.24 81.2546 227.416 80.8626 227.768C80.4786 228.12 80.2586 228.608 80.2026 229.232H84.3546Z"
        fill="white" />
    <path
        d="M19.9887 270.812C19.9887 269.996 20.1727 269.264 20.5407 268.616C20.9087 267.96 21.4087 267.448 22.0407 267.08C22.6807 266.712 23.3887 266.528 24.1647 266.528C25.0767 266.528 25.8727 266.748 26.5527 267.188C27.2327 267.628 27.7287 268.252 28.0407 269.06H26.7327C26.5007 268.556 26.1647 268.168 25.7247 267.896C25.2927 267.624 24.7727 267.488 24.1647 267.488C23.5807 267.488 23.0567 267.624 22.5927 267.896C22.1287 268.168 21.7647 268.556 21.5007 269.06C21.2367 269.556 21.1047 270.14 21.1047 270.812C21.1047 271.476 21.2367 272.06 21.5007 272.564C21.7647 273.06 22.1287 273.444 22.5927 273.716C23.0567 273.988 23.5807 274.124 24.1647 274.124C24.7727 274.124 25.2927 273.992 25.7247 273.728C26.1647 273.456 26.5007 273.068 26.7327 272.564H28.0407C27.7287 273.364 27.2327 273.984 26.5527 274.424C25.8727 274.856 25.0767 275.072 24.1647 275.072C23.3887 275.072 22.6807 274.892 22.0407 274.532C21.4087 274.164 20.9087 273.656 20.5407 273.008C20.1727 272.36 19.9887 271.628 19.9887 270.812ZM32.5342 275.108C31.9182 275.108 31.3582 274.968 30.8542 274.688C30.3582 274.408 29.9662 274.012 29.6782 273.5C29.3982 272.98 29.2582 272.38 29.2582 271.7C29.2582 271.028 29.4022 270.436 29.6902 269.924C29.9862 269.404 30.3862 269.008 30.8902 268.736C31.3942 268.456 31.9582 268.316 32.5822 268.316C33.2062 268.316 33.7702 268.456 34.2742 268.736C34.7782 269.008 35.1742 269.4 35.4622 269.912C35.7582 270.424 35.9062 271.02 35.9062 271.7C35.9062 272.38 35.7542 272.98 35.4502 273.5C35.1542 274.012 34.7502 274.408 34.2382 274.688C33.7262 274.968 33.1582 275.108 32.5342 275.108ZM32.5342 274.148C32.9262 274.148 33.2942 274.056 33.6382 273.872C33.9822 273.688 34.2582 273.412 34.4662 273.044C34.6822 272.676 34.7902 272.228 34.7902 271.7C34.7902 271.172 34.6862 270.724 34.4782 270.356C34.2702 269.988 33.9982 269.716 33.6622 269.54C33.3262 269.356 32.9622 269.264 32.5702 269.264C32.1702 269.264 31.8022 269.356 31.4662 269.54C31.1382 269.716 30.8742 269.988 30.6742 270.356C30.4742 270.724 30.3742 271.172 30.3742 271.7C30.3742 272.236 30.4702 272.688 30.6622 273.056C30.8622 273.424 31.1262 273.7 31.4542 273.884C31.7822 274.06 32.1422 274.148 32.5342 274.148ZM38.434 266.12V275H37.342V266.12H38.434ZM41.3871 266.12V275H40.2951V266.12H41.3871ZM49.2482 271.46C49.2482 271.668 49.2362 271.888 49.2122 272.12H43.9562C43.9962 272.768 44.2162 273.276 44.6162 273.644C45.0242 274.004 45.5162 274.184 46.0922 274.184C46.5642 274.184 46.9562 274.076 47.2682 273.86C47.5882 273.636 47.8122 273.34 47.9402 272.972H49.1162C48.9402 273.604 48.5882 274.12 48.0602 274.52C47.5322 274.912 46.8762 275.108 46.0922 275.108C45.4682 275.108 44.9082 274.968 44.4122 274.688C43.9242 274.408 43.5402 274.012 43.2602 273.5C42.9802 272.98 42.8402 272.38 42.8402 271.7C42.8402 271.02 42.9762 270.424 43.2482 269.912C43.5202 269.4 43.9002 269.008 44.3882 268.736C44.8842 268.456 45.4522 268.316 46.0922 268.316C46.7162 268.316 47.2682 268.452 47.7482 268.724C48.2282 268.996 48.5962 269.372 48.8522 269.852C49.1162 270.324 49.2482 270.86 49.2482 271.46ZM48.1202 271.232C48.1202 270.816 48.0282 270.46 47.8442 270.164C47.6602 269.86 47.4082 269.632 47.0882 269.48C46.7762 269.32 46.4282 269.24 46.0442 269.24C45.4922 269.24 45.0202 269.416 44.6282 269.768C44.2442 270.12 44.0242 270.608 43.9682 271.232H48.1202ZM50.2816 271.7C50.2816 271.02 50.4176 270.428 50.6896 269.924C50.9616 269.412 51.3376 269.016 51.8176 268.736C52.3056 268.456 52.8616 268.316 53.4856 268.316C54.2936 268.316 54.9576 268.512 55.4776 268.904C56.0056 269.296 56.3536 269.84 56.5216 270.536H55.3456C55.2336 270.136 55.0136 269.82 54.6856 269.588C54.3656 269.356 53.9656 269.24 53.4856 269.24C52.8616 269.24 52.3576 269.456 51.9736 269.888C51.5896 270.312 51.3976 270.916 51.3976 271.7C51.3976 272.492 51.5896 273.104 51.9736 273.536C52.3576 273.968 52.8616 274.184 53.4856 274.184C53.9656 274.184 54.3656 274.072 54.6856 273.848C55.0056 273.624 55.2256 273.304 55.3456 272.888H56.5216C56.3456 273.56 55.9936 274.1 55.4656 274.508C54.9376 274.908 54.2776 275.108 53.4856 275.108C52.8616 275.108 52.3056 274.968 51.8176 274.688C51.3376 274.408 50.9616 274.012 50.6896 273.5C50.4176 272.988 50.2816 272.388 50.2816 271.7ZM59.3107 269.324V273.2C59.3107 273.52 59.3787 273.748 59.5147 273.884C59.6507 274.012 59.8867 274.076 60.2227 274.076H61.0267V275H60.0427C59.4347 275 58.9787 274.86 58.6747 274.58C58.3707 274.3 58.2187 273.84 58.2187 273.2V269.324H57.3667V268.424H58.2187V266.768H59.3107V268.424H61.0267V269.324H59.3107ZM62.9138 267.356C62.7058 267.356 62.5298 267.284 62.3858 267.14C62.2418 266.996 62.1698 266.82 62.1698 266.612C62.1698 266.404 62.2418 266.228 62.3858 266.084C62.5298 265.94 62.7058 265.868 62.9138 265.868C63.1138 265.868 63.2818 265.94 63.4178 266.084C63.5618 266.228 63.6338 266.404 63.6338 266.612C63.6338 266.82 63.5618 266.996 63.4178 267.14C63.2818 267.284 63.1138 267.356 62.9138 267.356ZM63.4418 268.424V275H62.3498V268.424H63.4418ZM68.1709 275.108C67.5549 275.108 66.9949 274.968 66.4909 274.688C65.9949 274.408 65.6029 274.012 65.3149 273.5C65.0349 272.98 64.8949 272.38 64.8949 271.7C64.8949 271.028 65.0389 270.436 65.3269 269.924C65.6229 269.404 66.0229 269.008 66.5269 268.736C67.0309 268.456 67.5949 268.316 68.2189 268.316C68.8429 268.316 69.4069 268.456 69.9109 268.736C70.4149 269.008 70.8109 269.4 71.0989 269.912C71.3949 270.424 71.5429 271.02 71.5429 271.7C71.5429 272.38 71.3909 272.98 71.0869 273.5C70.7909 274.012 70.3869 274.408 69.8749 274.688C69.3629 274.968 68.7949 275.108 68.1709 275.108ZM68.1709 274.148C68.5629 274.148 68.9309 274.056 69.2749 273.872C69.6189 273.688 69.8949 273.412 70.1029 273.044C70.3189 272.676 70.4269 272.228 70.4269 271.7C70.4269 271.172 70.3229 270.724 70.1149 270.356C69.9069 269.988 69.6349 269.716 69.2989 269.54C68.9629 269.356 68.5989 269.264 68.2069 269.264C67.8069 269.264 67.4389 269.356 67.1029 269.54C66.7749 269.716 66.5109 269.988 66.3109 270.356C66.1109 270.724 66.0109 271.172 66.0109 271.7C66.0109 272.236 66.1069 272.688 66.2989 273.056C66.4989 273.424 66.7629 273.7 67.0909 273.884C67.4189 274.06 67.7789 274.148 68.1709 274.148ZM76.1827 268.304C76.9827 268.304 77.6307 268.548 78.1267 269.036C78.6227 269.516 78.8707 270.212 78.8707 271.124V275H77.7907V271.28C77.7907 270.624 77.6267 270.124 77.2987 269.78C76.9707 269.428 76.5227 269.252 75.9547 269.252C75.3787 269.252 74.9187 269.432 74.5747 269.792C74.2387 270.152 74.0707 270.676 74.0707 271.364V275H72.9787V268.424H74.0707V269.36C74.2867 269.024 74.5787 268.764 74.9467 268.58C75.3227 268.396 75.7347 268.304 76.1827 268.304ZM82.9825 275.108C82.4785 275.108 82.0265 275.024 81.6265 274.856C81.2265 274.68 80.9105 274.44 80.6785 274.136C80.4465 273.824 80.3185 273.468 80.2945 273.068H81.4225C81.4545 273.396 81.6065 273.664 81.8785 273.872C82.1585 274.08 82.5225 274.184 82.9705 274.184C83.3865 274.184 83.7145 274.092 83.9545 273.908C84.1945 273.724 84.3145 273.492 84.3145 273.212C84.3145 272.924 84.1865 272.712 83.9305 272.576C83.6745 272.432 83.2785 272.292 82.7425 272.156C82.2545 272.028 81.8545 271.9 81.5425 271.772C81.2385 271.636 80.9745 271.44 80.7505 271.184C80.5345 270.92 80.4265 270.576 80.4265 270.152C80.4265 269.816 80.5265 269.508 80.7265 269.228C80.9265 268.948 81.2105 268.728 81.5785 268.568C81.9465 268.4 82.3665 268.316 82.8385 268.316C83.5665 268.316 84.1545 268.5 84.6025 268.868C85.0505 269.236 85.2905 269.74 85.3225 270.38H84.2305C84.2065 270.036 84.0665 269.76 83.8105 269.552C83.5625 269.344 83.2265 269.24 82.8025 269.24C82.4105 269.24 82.0985 269.324 81.8665 269.492C81.6345 269.66 81.5185 269.88 81.5185 270.152C81.5185 270.368 81.5865 270.548 81.7225 270.692C81.8665 270.828 82.0425 270.94 82.2505 271.028C82.4665 271.108 82.7625 271.2 83.1385 271.304C83.6105 271.432 83.9945 271.56 84.2905 271.688C84.5865 271.808 84.8385 271.992 85.0465 272.24C85.2625 272.488 85.3745 272.812 85.3825 273.212C85.3825 273.572 85.2825 273.896 85.0825 274.184C84.8825 274.472 84.5985 274.7 84.2305 274.868C83.8705 275.028 83.4545 275.108 82.9825 275.108ZM61.9066 285.084C61.9066 285.78 61.6666 286.36 61.1866 286.824C60.7146 287.28 59.9906 287.508 59.0146 287.508H57.4066V291H56.3146V282.636H59.0146C59.9586 282.636 60.6746 282.864 61.1626 283.32C61.6586 283.776 61.9066 284.364 61.9066 285.084ZM59.0146 286.608C59.6226 286.608 60.0706 286.476 60.3586 286.212C60.6466 285.948 60.7906 285.572 60.7906 285.084C60.7906 284.052 60.1986 283.536 59.0146 283.536H57.4066V286.608H59.0146ZM62.8558 287.688C62.8558 287.016 62.9918 286.428 63.2638 285.924C63.5358 285.412 63.9078 285.016 64.3798 284.736C64.8598 284.456 65.3918 284.316 65.9758 284.316C66.5518 284.316 67.0518 284.44 67.4758 284.688C67.8998 284.936 68.2158 285.248 68.4238 285.624V284.424H69.5278V291H68.4238V289.776C68.2078 290.16 67.8838 290.48 67.4518 290.736C67.0278 290.984 66.5318 291.108 65.9638 291.108C65.3798 291.108 64.8518 290.964 64.3798 290.676C63.9078 290.388 63.5358 289.984 63.2638 289.464C62.9918 288.944 62.8558 288.352 62.8558 287.688ZM68.4238 287.7C68.4238 287.204 68.3238 286.772 68.1238 286.404C67.9238 286.036 67.6518 285.756 67.3078 285.564C66.9718 285.364 66.5998 285.264 66.1918 285.264C65.7838 285.264 65.4118 285.36 65.0758 285.552C64.7398 285.744 64.4718 286.024 64.2718 286.392C64.0718 286.76 63.9718 287.192 63.9718 287.688C63.9718 288.192 64.0718 288.632 64.2718 289.008C64.4718 289.376 64.7398 289.66 65.0758 289.86C65.4118 290.052 65.7838 290.148 66.1918 290.148C66.5998 290.148 66.9718 290.052 67.3078 289.86C67.6518 289.66 67.9238 289.376 68.1238 289.008C68.3238 288.632 68.4238 288.196 68.4238 287.7ZM74.0852 284.316C74.6532 284.316 75.1492 284.44 75.5732 284.688C76.0052 284.936 76.3252 285.248 76.5332 285.624V284.424H77.6372V291.144C77.6372 291.744 77.5092 292.276 77.2532 292.74C76.9972 293.212 76.6292 293.58 76.1492 293.844C75.6772 294.108 75.1252 294.24 74.4932 294.24C73.6292 294.24 72.9092 294.036 72.3332 293.628C71.7572 293.22 71.4172 292.664 71.3132 291.96H72.3932C72.5132 292.36 72.7612 292.68 73.1372 292.92C73.5132 293.168 73.9652 293.292 74.4932 293.292C75.0932 293.292 75.5812 293.104 75.9572 292.728C76.3412 292.352 76.5332 291.824 76.5332 291.144V289.764C76.3172 290.148 75.9972 290.468 75.5732 290.724C75.1492 290.98 74.6532 291.108 74.0852 291.108C73.5012 291.108 72.9692 290.964 72.4892 290.676C72.0172 290.388 71.6452 289.984 71.3732 289.464C71.1012 288.944 70.9652 288.352 70.9652 287.688C70.9652 287.016 71.1012 286.428 71.3732 285.924C71.6452 285.412 72.0172 285.016 72.4892 284.736C72.9692 284.456 73.5012 284.316 74.0852 284.316ZM76.5332 287.7C76.5332 287.204 76.4332 286.772 76.2332 286.404C76.0332 286.036 75.7612 285.756 75.4172 285.564C75.0812 285.364 74.7092 285.264 74.3012 285.264C73.8932 285.264 73.5212 285.36 73.1852 285.552C72.8492 285.744 72.5812 286.024 72.3812 286.392C72.1812 286.76 72.0812 287.192 72.0812 287.688C72.0812 288.192 72.1812 288.632 72.3812 289.008C72.5812 289.376 72.8492 289.66 73.1852 289.86C73.5212 290.052 73.8932 290.148 74.3012 290.148C74.7092 290.148 75.0812 290.052 75.4172 289.86C75.7612 289.66 76.0332 289.376 76.2332 289.008C76.4332 288.632 76.5332 288.196 76.5332 287.7ZM85.4826 287.46C85.4826 287.668 85.4706 287.888 85.4466 288.12H80.1906C80.2306 288.768 80.4506 289.276 80.8506 289.644C81.2586 290.004 81.7506 290.184 82.3266 290.184C82.7986 290.184 83.1906 290.076 83.5026 289.86C83.8226 289.636 84.0466 289.34 84.1746 288.972H85.3506C85.1746 289.604 84.8226 290.12 84.2946 290.52C83.7666 290.912 83.1106 291.108 82.3266 291.108C81.7026 291.108 81.1426 290.968 80.6466 290.688C80.1586 290.408 79.7746 290.012 79.4946 289.5C79.2146 288.98 79.0746 288.38 79.0746 287.7C79.0746 287.02 79.2106 286.424 79.4826 285.912C79.7546 285.4 80.1346 285.008 80.6226 284.736C81.1186 284.456 81.6866 284.316 82.3266 284.316C82.9506 284.316 83.5026 284.452 83.9826 284.724C84.4626 284.996 84.8306 285.372 85.0866 285.852C85.3506 286.324 85.4826 286.86 85.4826 287.46ZM84.3546 287.232C84.3546 286.816 84.2626 286.46 84.0786 286.164C83.8946 285.86 83.6426 285.632 83.3226 285.48C83.0106 285.32 82.6626 285.24 82.2786 285.24C81.7266 285.24 81.2546 285.416 80.8626 285.768C80.4786 286.12 80.2586 286.608 80.2026 287.232H84.3546Z"
        fill="white" />
    <path
        d="M45.9691 314.084C45.9691 314.78 45.7291 315.36 45.2491 315.824C44.7771 316.28 44.0531 316.508 43.0771 316.508H41.4691V320H40.3771V311.636H43.0771C44.0211 311.636 44.7371 311.864 45.2251 312.32C45.7211 312.776 45.9691 313.364 45.9691 314.084ZM43.0771 315.608C43.6851 315.608 44.1331 315.476 44.4211 315.212C44.7091 314.948 44.8531 314.572 44.8531 314.084C44.8531 313.052 44.2611 312.536 43.0771 312.536H41.4691V315.608H43.0771ZM48.4183 314.492C48.6103 314.116 48.8823 313.824 49.2343 313.616C49.5943 313.408 50.0303 313.304 50.5423 313.304V314.432H50.2543C49.0303 314.432 48.4183 315.096 48.4183 316.424V320H47.3263V313.424H48.4183V314.492ZM54.6709 320.108C54.0549 320.108 53.4949 319.968 52.9909 319.688C52.4949 319.408 52.1029 319.012 51.8149 318.5C51.5349 317.98 51.3949 317.38 51.3949 316.7C51.3949 316.028 51.5389 315.436 51.8269 314.924C52.1229 314.404 52.5229 314.008 53.0269 313.736C53.5309 313.456 54.0949 313.316 54.7189 313.316C55.3429 313.316 55.9069 313.456 56.4109 313.736C56.9149 314.008 57.3109 314.4 57.5989 314.912C57.8949 315.424 58.0429 316.02 58.0429 316.7C58.0429 317.38 57.8909 317.98 57.5869 318.5C57.2909 319.012 56.8869 319.408 56.3749 319.688C55.8629 319.968 55.2949 320.108 54.6709 320.108ZM54.6709 319.148C55.0629 319.148 55.4309 319.056 55.7749 318.872C56.1189 318.688 56.3949 318.412 56.6029 318.044C56.8189 317.676 56.9269 317.228 56.9269 316.7C56.9269 316.172 56.8229 315.724 56.6149 315.356C56.4069 314.988 56.1349 314.716 55.7989 314.54C55.4629 314.356 55.0989 314.264 54.7069 314.264C54.3069 314.264 53.9389 314.356 53.6029 314.54C53.2749 314.716 53.0109 314.988 52.8109 315.356C52.6109 315.724 52.5109 316.172 52.5109 316.7C52.5109 317.236 52.6069 317.688 52.7989 318.056C52.9989 318.424 53.2629 318.7 53.5909 318.884C53.9189 319.06 54.2789 319.148 54.6709 319.148ZM59.0707 316.688C59.0707 316.016 59.2067 315.428 59.4787 314.924C59.7507 314.412 60.1227 314.016 60.5947 313.736C61.0747 313.456 61.6107 313.316 62.2027 313.316C62.7147 313.316 63.1907 313.436 63.6307 313.676C64.0707 313.908 64.4067 314.216 64.6387 314.6V311.12H65.7427V320H64.6387V318.764C64.4227 319.156 64.1027 319.48 63.6787 319.736C63.2547 319.984 62.7587 320.108 62.1907 320.108C61.6067 320.108 61.0747 319.964 60.5947 319.676C60.1227 319.388 59.7507 318.984 59.4787 318.464C59.2067 317.944 59.0707 317.352 59.0707 316.688ZM64.6387 316.7C64.6387 316.204 64.5387 315.772 64.3387 315.404C64.1387 315.036 63.8667 314.756 63.5227 314.564C63.1867 314.364 62.8147 314.264 62.4067 314.264C61.9987 314.264 61.6267 314.36 61.2907 314.552C60.9547 314.744 60.6867 315.024 60.4867 315.392C60.2867 315.76 60.1867 316.192 60.1867 316.688C60.1867 317.192 60.2867 317.632 60.4867 318.008C60.6867 318.376 60.9547 318.66 61.2907 318.86C61.6267 319.052 61.9987 319.148 62.4067 319.148C62.8147 319.148 63.1867 319.052 63.5227 318.86C63.8667 318.66 64.1387 318.376 64.3387 318.008C64.5387 317.632 64.6387 317.196 64.6387 316.7ZM73.4201 313.424V320H72.3281V319.028C72.1201 319.364 71.8281 319.628 71.4521 319.82C71.0841 320.004 70.6761 320.096 70.2281 320.096C69.7161 320.096 69.2561 319.992 68.8481 319.784C68.4401 319.568 68.1161 319.248 67.8761 318.824C67.6441 318.4 67.5281 317.884 67.5281 317.276V313.424H68.6081V317.132C68.6081 317.78 68.7721 318.28 69.1001 318.632C69.4281 318.976 69.8761 319.148 70.4441 319.148C71.0281 319.148 71.4881 318.968 71.8241 318.608C72.1601 318.248 72.3281 317.724 72.3281 317.036V313.424H73.4201ZM74.8558 316.7C74.8558 316.02 74.9918 315.428 75.2638 314.924C75.5358 314.412 75.9118 314.016 76.3918 313.736C76.8798 313.456 77.4358 313.316 78.0598 313.316C78.8678 313.316 79.5318 313.512 80.0518 313.904C80.5798 314.296 80.9278 314.84 81.0958 315.536H79.9198C79.8078 315.136 79.5878 314.82 79.2598 314.588C78.9398 314.356 78.5398 314.24 78.0598 314.24C77.4358 314.24 76.9318 314.456 76.5478 314.888C76.1638 315.312 75.9718 315.916 75.9718 316.7C75.9718 317.492 76.1638 318.104 76.5478 318.536C76.9318 318.968 77.4358 319.184 78.0598 319.184C78.5398 319.184 78.9398 319.072 79.2598 318.848C79.5798 318.624 79.7998 318.304 79.9198 317.888H81.0958C80.9198 318.56 80.5678 319.1 80.0398 319.508C79.5118 319.908 78.8518 320.108 78.0598 320.108C77.4358 320.108 76.8798 319.968 76.3918 319.688C75.9118 319.408 75.5358 319.012 75.2638 318.5C74.9918 317.988 74.8558 317.388 74.8558 316.7ZM83.8849 314.324V318.2C83.8849 318.52 83.9529 318.748 84.0889 318.884C84.2249 319.012 84.4609 319.076 84.7969 319.076H85.6009V320H84.6169C84.0089 320 83.5529 319.86 83.2489 319.58C82.9449 319.3 82.7929 318.84 82.7929 318.2V314.324H81.9409V313.424H82.7929V311.768H83.8849V313.424H85.6009V314.324H83.8849ZM61.9066 330.084C61.9066 330.78 61.6666 331.36 61.1866 331.824C60.7146 332.28 59.9906 332.508 59.0146 332.508H57.4066V336H56.3146V327.636H59.0146C59.9586 327.636 60.6746 327.864 61.1626 328.32C61.6586 328.776 61.9066 329.364 61.9066 330.084ZM59.0146 331.608C59.6226 331.608 60.0706 331.476 60.3586 331.212C60.6466 330.948 60.7906 330.572 60.7906 330.084C60.7906 329.052 60.1986 328.536 59.0146 328.536H57.4066V331.608H59.0146ZM62.8558 332.688C62.8558 332.016 62.9918 331.428 63.2638 330.924C63.5358 330.412 63.9078 330.016 64.3798 329.736C64.8598 329.456 65.3918 329.316 65.9758 329.316C66.5518 329.316 67.0518 329.44 67.4758 329.688C67.8998 329.936 68.2158 330.248 68.4238 330.624V329.424H69.5278V336H68.4238V334.776C68.2078 335.16 67.8838 335.48 67.4518 335.736C67.0278 335.984 66.5318 336.108 65.9638 336.108C65.3798 336.108 64.8518 335.964 64.3798 335.676C63.9078 335.388 63.5358 334.984 63.2638 334.464C62.9918 333.944 62.8558 333.352 62.8558 332.688ZM68.4238 332.7C68.4238 332.204 68.3238 331.772 68.1238 331.404C67.9238 331.036 67.6518 330.756 67.3078 330.564C66.9718 330.364 66.5998 330.264 66.1918 330.264C65.7838 330.264 65.4118 330.36 65.0758 330.552C64.7398 330.744 64.4718 331.024 64.2718 331.392C64.0718 331.76 63.9718 332.192 63.9718 332.688C63.9718 333.192 64.0718 333.632 64.2718 334.008C64.4718 334.376 64.7398 334.66 65.0758 334.86C65.4118 335.052 65.7838 335.148 66.1918 335.148C66.5998 335.148 66.9718 335.052 67.3078 334.86C67.6518 334.66 67.9238 334.376 68.1238 334.008C68.3238 333.632 68.4238 333.196 68.4238 332.7ZM74.0852 329.316C74.6532 329.316 75.1492 329.44 75.5732 329.688C76.0052 329.936 76.3252 330.248 76.5332 330.624V329.424H77.6372V336.144C77.6372 336.744 77.5092 337.276 77.2532 337.74C76.9972 338.212 76.6292 338.58 76.1492 338.844C75.6772 339.108 75.1252 339.24 74.4932 339.24C73.6292 339.24 72.9092 339.036 72.3332 338.628C71.7572 338.22 71.4172 337.664 71.3132 336.96H72.3932C72.5132 337.36 72.7612 337.68 73.1372 337.92C73.5132 338.168 73.9652 338.292 74.4932 338.292C75.0932 338.292 75.5812 338.104 75.9572 337.728C76.3412 337.352 76.5332 336.824 76.5332 336.144V334.764C76.3172 335.148 75.9972 335.468 75.5732 335.724C75.1492 335.98 74.6532 336.108 74.0852 336.108C73.5012 336.108 72.9692 335.964 72.4892 335.676C72.0172 335.388 71.6452 334.984 71.3732 334.464C71.1012 333.944 70.9652 333.352 70.9652 332.688C70.9652 332.016 71.1012 331.428 71.3732 330.924C71.6452 330.412 72.0172 330.016 72.4892 329.736C72.9692 329.456 73.5012 329.316 74.0852 329.316ZM76.5332 332.7C76.5332 332.204 76.4332 331.772 76.2332 331.404C76.0332 331.036 75.7612 330.756 75.4172 330.564C75.0812 330.364 74.7092 330.264 74.3012 330.264C73.8932 330.264 73.5212 330.36 73.1852 330.552C72.8492 330.744 72.5812 331.024 72.3812 331.392C72.1812 331.76 72.0812 332.192 72.0812 332.688C72.0812 333.192 72.1812 333.632 72.3812 334.008C72.5812 334.376 72.8492 334.66 73.1852 334.86C73.5212 335.052 73.8932 335.148 74.3012 335.148C74.7092 335.148 75.0812 335.052 75.4172 334.86C75.7612 334.66 76.0332 334.376 76.2332 334.008C76.4332 333.632 76.5332 333.196 76.5332 332.7ZM85.4826 332.46C85.4826 332.668 85.4706 332.888 85.4466 333.12H80.1906C80.2306 333.768 80.4506 334.276 80.8506 334.644C81.2586 335.004 81.7506 335.184 82.3266 335.184C82.7986 335.184 83.1906 335.076 83.5026 334.86C83.8226 334.636 84.0466 334.34 84.1746 333.972H85.3506C85.1746 334.604 84.8226 335.12 84.2946 335.52C83.7666 335.912 83.1106 336.108 82.3266 336.108C81.7026 336.108 81.1426 335.968 80.6466 335.688C80.1586 335.408 79.7746 335.012 79.4946 334.5C79.2146 333.98 79.0746 333.38 79.0746 332.7C79.0746 332.02 79.2106 331.424 79.4826 330.912C79.7546 330.4 80.1346 330.008 80.6226 329.736C81.1186 329.456 81.6866 329.316 82.3266 329.316C82.9506 329.316 83.5026 329.452 83.9826 329.724C84.4626 329.996 84.8306 330.372 85.0866 330.852C85.3506 331.324 85.4826 331.86 85.4826 332.46ZM84.3546 332.232C84.3546 331.816 84.2626 331.46 84.0786 331.164C83.8946 330.86 83.6426 330.632 83.3226 330.48C83.0106 330.32 82.6626 330.24 82.2786 330.24C81.7266 330.24 81.2546 330.416 80.8626 330.768C80.4786 331.12 80.2586 331.608 80.2026 332.232H84.3546Z"
        fill="white" />
    <path
        d="M60.2894 373.812C60.2894 372.996 60.4734 372.264 60.8414 371.616C61.2094 370.96 61.7094 370.448 62.3414 370.08C62.9814 369.712 63.6894 369.528 64.4654 369.528C65.3774 369.528 66.1734 369.748 66.8534 370.188C67.5334 370.628 68.0294 371.252 68.3414 372.06H67.0334C66.8014 371.556 66.4654 371.168 66.0254 370.896C65.5934 370.624 65.0734 370.488 64.4654 370.488C63.8814 370.488 63.3574 370.624 62.8934 370.896C62.4294 371.168 62.0654 371.556 61.8014 372.06C61.5374 372.556 61.4054 373.14 61.4054 373.812C61.4054 374.476 61.5374 375.06 61.8014 375.564C62.0654 376.06 62.4294 376.444 62.8934 376.716C63.3574 376.988 63.8814 377.124 64.4654 377.124C65.0734 377.124 65.5934 376.992 66.0254 376.728C66.4654 376.456 66.8014 376.068 67.0334 375.564H68.3414C68.0294 376.364 67.5334 376.984 66.8534 377.424C66.1734 377.856 65.3774 378.072 64.4654 378.072C63.6894 378.072 62.9814 377.892 62.3414 377.532C61.7094 377.164 61.2094 376.656 60.8414 376.008C60.4734 375.36 60.2894 374.628 60.2894 373.812ZM69.559 374.688C69.559 374.016 69.695 373.428 69.967 372.924C70.239 372.412 70.611 372.016 71.083 371.736C71.563 371.456 72.095 371.316 72.679 371.316C73.255 371.316 73.755 371.44 74.179 371.688C74.603 371.936 74.919 372.248 75.127 372.624V371.424H76.231V378H75.127V376.776C74.911 377.16 74.587 377.48 74.155 377.736C73.731 377.984 73.235 378.108 72.667 378.108C72.083 378.108 71.555 377.964 71.083 377.676C70.611 377.388 70.239 376.984 69.967 376.464C69.695 375.944 69.559 375.352 69.559 374.688ZM75.127 374.7C75.127 374.204 75.027 373.772 74.827 373.404C74.627 373.036 74.355 372.756 74.011 372.564C73.675 372.364 73.303 372.264 72.895 372.264C72.487 372.264 72.115 372.36 71.779 372.552C71.443 372.744 71.175 373.024 70.975 373.392C70.775 373.76 70.675 374.192 70.675 374.688C70.675 375.192 70.775 375.632 70.975 376.008C71.175 376.376 71.443 376.66 71.779 376.86C72.115 377.052 72.487 377.148 72.895 377.148C73.303 377.148 73.675 377.052 74.011 376.86C74.355 376.66 74.627 376.376 74.827 376.008C75.027 375.632 75.127 375.196 75.127 374.7ZM79.1683 372.492C79.3603 372.116 79.6323 371.824 79.9843 371.616C80.3443 371.408 80.7803 371.304 81.2923 371.304V372.432H81.0043C79.7803 372.432 79.1683 373.096 79.1683 374.424V378H78.0763V371.424H79.1683V372.492ZM83.8849 372.324V376.2C83.8849 376.52 83.9529 376.748 84.0889 376.884C84.2249 377.012 84.4609 377.076 84.7969 377.076H85.6009V378H84.6169C84.0089 378 83.5529 377.86 83.2489 377.58C82.9449 377.3 82.7929 376.84 82.7929 376.2V372.324H81.9409V371.424H82.7929V369.768H83.8849V371.424H85.6009V372.324H83.8849Z"
        fill="white" />
    <path
        d="M23.9848 419.812C23.9848 418.996 24.1688 418.264 24.5368 417.616C24.9048 416.96 25.4048 416.448 26.0368 416.08C26.6768 415.712 27.3848 415.528 28.1608 415.528C29.0728 415.528 29.8688 415.748 30.5488 416.188C31.2288 416.628 31.7248 417.252 32.0368 418.06H30.7288C30.4968 417.556 30.1608 417.168 29.7208 416.896C29.2888 416.624 28.7688 416.488 28.1608 416.488C27.5768 416.488 27.0528 416.624 26.5888 416.896C26.1248 417.168 25.7608 417.556 25.4968 418.06C25.2328 418.556 25.1008 419.14 25.1008 419.812C25.1008 420.476 25.2328 421.06 25.4968 421.564C25.7608 422.06 26.1248 422.444 26.5888 422.716C27.0528 422.988 27.5768 423.124 28.1608 423.124C28.7688 423.124 29.2888 422.992 29.7208 422.728C30.1608 422.456 30.4968 422.068 30.7288 421.564H32.0368C31.7248 422.364 31.2288 422.984 30.5488 423.424C29.8688 423.856 29.0728 424.072 28.1608 424.072C27.3848 424.072 26.6768 423.892 26.0368 423.532C25.4048 423.164 24.9048 422.656 24.5368 422.008C24.1688 421.36 23.9848 420.628 23.9848 419.812ZM36.9263 417.304C37.4223 417.304 37.8703 417.412 38.2703 417.628C38.6703 417.836 38.9823 418.152 39.2063 418.576C39.4383 419 39.5543 419.516 39.5543 420.124V424H38.4743V420.28C38.4743 419.624 38.3103 419.124 37.9823 418.78C37.6543 418.428 37.2063 418.252 36.6383 418.252C36.0623 418.252 35.6023 418.432 35.2583 418.792C34.9223 419.152 34.7543 419.676 34.7543 420.364V424H33.6623V415.12H34.7543V418.36C34.9703 418.024 35.2663 417.764 35.6423 417.58C36.0263 417.396 36.4543 417.304 36.9263 417.304ZM47.3381 420.46C47.3381 420.668 47.3261 420.888 47.3021 421.12H42.0461C42.0861 421.768 42.3061 422.276 42.7061 422.644C43.1141 423.004 43.6061 423.184 44.1821 423.184C44.6541 423.184 45.0461 423.076 45.3581 422.86C45.6781 422.636 45.9021 422.34 46.0301 421.972H47.2061C47.0301 422.604 46.6781 423.12 46.1501 423.52C45.6221 423.912 44.9661 424.108 44.1821 424.108C43.5581 424.108 42.9981 423.968 42.5021 423.688C42.0141 423.408 41.6301 423.012 41.3501 422.5C41.0701 421.98 40.9301 421.38 40.9301 420.7C40.9301 420.02 41.0661 419.424 41.3381 418.912C41.6101 418.4 41.9901 418.008 42.4781 417.736C42.9741 417.456 43.5421 417.316 44.1821 417.316C44.8061 417.316 45.3581 417.452 45.8381 417.724C46.3181 417.996 46.6861 418.372 46.9421 418.852C47.2061 419.324 47.3381 419.86 47.3381 420.46ZM46.2101 420.232C46.2101 419.816 46.1181 419.46 45.9341 419.164C45.7501 418.86 45.4981 418.632 45.1781 418.48C44.8661 418.32 44.5181 418.24 44.1341 418.24C43.5821 418.24 43.1101 418.416 42.7181 418.768C42.3341 419.12 42.1141 419.608 42.0581 420.232H46.2101ZM48.3715 420.7C48.3715 420.02 48.5075 419.428 48.7795 418.924C49.0515 418.412 49.4275 418.016 49.9075 417.736C50.3955 417.456 50.9515 417.316 51.5755 417.316C52.3835 417.316 53.0475 417.512 53.5675 417.904C54.0955 418.296 54.4435 418.84 54.6115 419.536H53.4355C53.3235 419.136 53.1035 418.82 52.7755 418.588C52.4555 418.356 52.0555 418.24 51.5755 418.24C50.9515 418.24 50.4475 418.456 50.0635 418.888C49.6795 419.312 49.4875 419.916 49.4875 420.7C49.4875 421.492 49.6795 422.104 50.0635 422.536C50.4475 422.968 50.9515 423.184 51.5755 423.184C52.0555 423.184 52.4555 423.072 52.7755 422.848C53.0955 422.624 53.3155 422.304 53.4355 421.888H54.6115C54.4355 422.56 54.0835 423.1 53.5555 423.508C53.0275 423.908 52.3675 424.108 51.5755 424.108C50.9515 424.108 50.3955 423.968 49.9075 423.688C49.4275 423.408 49.0515 423.012 48.7795 422.5C48.5075 421.988 48.3715 421.388 48.3715 420.7ZM59.7405 424L57.1605 421.096V424H56.0685V415.12H57.1605V420.34L59.6925 417.424H61.2165L58.1205 420.7L61.2285 424H59.7405ZM69.2355 424.084C68.4595 424.084 67.7515 423.904 67.1115 423.544C66.4715 423.176 65.9635 422.668 65.5875 422.02C65.2195 421.364 65.0355 420.628 65.0355 419.812C65.0355 418.996 65.2195 418.264 65.5875 417.616C65.9635 416.96 66.4715 416.452 67.1115 416.092C67.7515 415.724 68.4595 415.54 69.2355 415.54C70.0195 415.54 70.7315 415.724 71.3715 416.092C72.0115 416.452 72.5155 416.956 72.8835 417.604C73.2515 418.252 73.4355 418.988 73.4355 419.812C73.4355 420.636 73.2515 421.372 72.8835 422.02C72.5155 422.668 72.0115 423.176 71.3715 423.544C70.7315 423.904 70.0195 424.084 69.2355 424.084ZM69.2355 423.136C69.8195 423.136 70.3435 423 70.8075 422.728C71.2795 422.456 71.6475 422.068 71.9115 421.564C72.1835 421.06 72.3195 420.476 72.3195 419.812C72.3195 419.14 72.1835 418.556 71.9115 418.06C71.6475 417.556 71.2835 417.168 70.8195 416.896C70.3555 416.624 69.8275 416.488 69.2355 416.488C68.6435 416.488 68.1155 416.624 67.6515 416.896C67.1875 417.168 66.8195 417.556 66.5475 418.06C66.2835 418.556 66.1515 419.14 66.1515 419.812C66.1515 420.476 66.2835 421.06 66.5475 421.564C66.8195 422.068 67.1875 422.456 67.6515 422.728C68.1235 423 68.6515 423.136 69.2355 423.136ZM80.7091 417.424V424H79.6171V423.028C79.4091 423.364 79.1171 423.628 78.7411 423.82C78.3731 424.004 77.9651 424.096 77.5171 424.096C77.0051 424.096 76.5451 423.992 76.1371 423.784C75.7291 423.568 75.4051 423.248 75.1651 422.824C74.9331 422.4 74.8171 421.884 74.8171 421.276V417.424H75.8971V421.132C75.8971 421.78 76.0611 422.28 76.3891 422.632C76.7171 422.976 77.1651 423.148 77.7331 423.148C78.3171 423.148 78.7771 422.968 79.1131 422.608C79.4491 422.248 79.6171 421.724 79.6171 421.036V417.424H80.7091ZM83.8849 418.324V422.2C83.8849 422.52 83.9529 422.748 84.0889 422.884C84.2249 423.012 84.4609 423.076 84.7969 423.076H85.6009V424H84.6169C84.0089 424 83.5529 423.86 83.2489 423.58C82.9449 423.3 82.7929 422.84 82.7929 422.2V418.324H81.9409V417.424H82.7929V415.768H83.8849V417.424H85.6009V418.324H83.8849Z"
        fill="white" />
    <path
        d="M85.7473 503.084C84.9713 503.084 84.2633 502.904 83.6233 502.544C82.9833 502.176 82.4753 501.668 82.0993 501.02C81.7313 500.364 81.5473 499.628 81.5473 498.812C81.5473 497.996 81.7313 497.264 82.0993 496.616C82.4753 495.96 82.9833 495.452 83.6233 495.092C84.2633 494.724 84.9713 494.54 85.7473 494.54C86.5313 494.54 87.2433 494.724 87.8833 495.092C88.5233 495.452 89.0273 495.956 89.3953 496.604C89.7633 497.252 89.9473 497.988 89.9473 498.812C89.9473 499.636 89.7633 500.372 89.3953 501.02C89.0273 501.668 88.5233 502.176 87.8833 502.544C87.2433 502.904 86.5313 503.084 85.7473 503.084ZM85.7473 502.136C86.3313 502.136 86.8553 502 87.3193 501.728C87.7913 501.456 88.1593 501.068 88.4233 500.564C88.6953 500.06 88.8313 499.476 88.8313 498.812C88.8313 498.14 88.6953 497.556 88.4233 497.06C88.1593 496.556 87.7953 496.168 87.3313 495.896C86.8673 495.624 86.3393 495.488 85.7473 495.488C85.1553 495.488 84.6273 495.624 84.1633 495.896C83.6993 496.168 83.3313 496.556 83.0593 497.06C82.7953 497.556 82.6633 498.14 82.6633 498.812C82.6633 499.476 82.7953 500.06 83.0593 500.564C83.3313 501.068 83.6993 501.456 84.1633 501.728C84.6353 502 85.1633 502.136 85.7473 502.136ZM92.4808 497.492C92.6728 497.116 92.9448 496.824 93.2968 496.616C93.6568 496.408 94.0928 496.304 94.6048 496.304V497.432H94.3168C93.0928 497.432 92.4808 498.096 92.4808 499.424V503H91.3888V496.424H92.4808V497.492ZM95.4574 499.688C95.4574 499.016 95.5934 498.428 95.8654 497.924C96.1374 497.412 96.5094 497.016 96.9814 496.736C97.4614 496.456 97.9974 496.316 98.5894 496.316C99.1014 496.316 99.5774 496.436 100.017 496.676C100.457 496.908 100.793 497.216 101.025 497.6V494.12H102.129V503H101.025V501.764C100.809 502.156 100.489 502.48 100.065 502.736C99.6414 502.984 99.1454 503.108 98.5774 503.108C97.9934 503.108 97.4614 502.964 96.9814 502.676C96.5094 502.388 96.1374 501.984 95.8654 501.464C95.5934 500.944 95.4574 500.352 95.4574 499.688ZM101.025 499.7C101.025 499.204 100.925 498.772 100.725 498.404C100.525 498.036 100.253 497.756 99.9094 497.564C99.5734 497.364 99.2014 497.264 98.7934 497.264C98.3854 497.264 98.0134 497.36 97.6774 497.552C97.3414 497.744 97.0734 498.024 96.8734 498.392C96.6734 498.76 96.5734 499.192 96.5734 499.688C96.5734 500.192 96.6734 500.632 96.8734 501.008C97.0734 501.376 97.3414 501.66 97.6774 501.86C98.0134 502.052 98.3854 502.148 98.7934 502.148C99.2014 502.148 99.5734 502.052 99.9094 501.86C100.253 501.66 100.525 501.376 100.725 501.008C100.925 500.632 101.025 500.196 101.025 499.7ZM109.975 499.46C109.975 499.668 109.963 499.888 109.939 500.12H104.683C104.723 500.768 104.943 501.276 105.343 501.644C105.751 502.004 106.243 502.184 106.819 502.184C107.291 502.184 107.683 502.076 107.995 501.86C108.315 501.636 108.539 501.34 108.667 500.972H109.843C109.667 501.604 109.315 502.12 108.787 502.52C108.259 502.912 107.603 503.108 106.819 503.108C106.195 503.108 105.635 502.968 105.139 502.688C104.651 502.408 104.267 502.012 103.987 501.5C103.707 500.98 103.567 500.38 103.567 499.7C103.567 499.02 103.703 498.424 103.975 497.912C104.247 497.4 104.627 497.008 105.115 496.736C105.611 496.456 106.179 496.316 106.819 496.316C107.443 496.316 107.995 496.452 108.475 496.724C108.955 496.996 109.323 497.372 109.579 497.852C109.843 498.324 109.975 498.86 109.975 499.46ZM108.847 499.232C108.847 498.816 108.755 498.46 108.571 498.164C108.387 497.86 108.135 497.632 107.815 497.48C107.503 497.32 107.155 497.24 106.771 497.24C106.219 497.24 105.747 497.416 105.355 497.768C104.971 498.12 104.751 498.608 104.695 499.232H108.847ZM112.508 497.492C112.7 497.116 112.972 496.824 113.324 496.616C113.684 496.408 114.12 496.304 114.632 496.304V497.432H114.344C113.12 497.432 112.508 498.096 112.508 499.424V503H111.416V496.424H112.508V497.492ZM58.9418 514.812C58.9418 513.996 59.1258 513.264 59.4938 512.616C59.8618 511.96 60.3618 511.448 60.9938 511.08C61.6338 510.712 62.3418 510.528 63.1178 510.528C64.0298 510.528 64.8258 510.748 65.5058 511.188C66.1858 511.628 66.6818 512.252 66.9938 513.06H65.6858C65.4538 512.556 65.1178 512.168 64.6778 511.896C64.2458 511.624 63.7258 511.488 63.1178 511.488C62.5338 511.488 62.0098 511.624 61.5458 511.896C61.0818 512.168 60.7178 512.556 60.4538 513.06C60.1898 513.556 60.0578 514.14 60.0578 514.812C60.0578 515.476 60.1898 516.06 60.4538 516.564C60.7178 517.06 61.0818 517.444 61.5458 517.716C62.0098 517.988 62.5338 518.124 63.1178 518.124C63.7258 518.124 64.2458 517.992 64.6778 517.728C65.1178 517.456 65.4538 517.068 65.6858 516.564H66.9938C66.6818 517.364 66.1858 517.984 65.5058 518.424C64.8258 518.856 64.0298 519.072 63.1178 519.072C62.3418 519.072 61.6338 518.892 60.9938 518.532C60.3618 518.164 59.8618 517.656 59.4938 517.008C59.1258 516.36 58.9418 515.628 58.9418 514.812ZM71.4873 519.108C70.8713 519.108 70.3113 518.968 69.8073 518.688C69.3113 518.408 68.9193 518.012 68.6313 517.5C68.3513 516.98 68.2113 516.38 68.2113 515.7C68.2113 515.028 68.3553 514.436 68.6433 513.924C68.9393 513.404 69.3393 513.008 69.8433 512.736C70.3473 512.456 70.9113 512.316 71.5353 512.316C72.1593 512.316 72.7233 512.456 73.2273 512.736C73.7313 513.008 74.1273 513.4 74.4153 513.912C74.7113 514.424 74.8593 515.02 74.8593 515.7C74.8593 516.38 74.7073 516.98 74.4033 517.5C74.1073 518.012 73.7033 518.408 73.1913 518.688C72.6793 518.968 72.1113 519.108 71.4873 519.108ZM71.4873 518.148C71.8793 518.148 72.2473 518.056 72.5913 517.872C72.9353 517.688 73.2113 517.412 73.4193 517.044C73.6353 516.676 73.7433 516.228 73.7433 515.7C73.7433 515.172 73.6393 514.724 73.4313 514.356C73.2233 513.988 72.9513 513.716 72.6153 513.54C72.2793 513.356 71.9153 513.264 71.5233 513.264C71.1233 513.264 70.7553 513.356 70.4193 513.54C70.0913 513.716 69.8273 513.988 69.6273 514.356C69.4273 514.724 69.3273 515.172 69.3273 515.7C69.3273 516.236 69.4233 516.688 69.6153 517.056C69.8153 517.424 70.0793 517.7 70.4073 517.884C70.7353 518.06 71.0953 518.148 71.4873 518.148ZM79.4991 512.304C80.2991 512.304 80.9471 512.548 81.4431 513.036C81.9391 513.516 82.1871 514.212 82.1871 515.124V519H81.1071V515.28C81.1071 514.624 80.9431 514.124 80.6151 513.78C80.2871 513.428 79.8391 513.252 79.2711 513.252C78.6951 513.252 78.2351 513.432 77.8911 513.792C77.5551 514.152 77.3871 514.676 77.3871 515.364V519H76.2951V512.424H77.3871V513.36C77.6031 513.024 77.8951 512.764 78.2631 512.58C78.6391 512.396 79.0511 512.304 79.4991 512.304ZM86.6469 513.324H85.2669V519H84.1749V513.324H83.3229V512.424H84.1749V511.956C84.1749 511.22 84.3629 510.684 84.7389 510.348C85.1229 510.004 85.7349 509.832 86.5749 509.832V510.744C86.0949 510.744 85.7549 510.84 85.5549 511.032C85.3629 511.216 85.2669 511.524 85.2669 511.956V512.424H86.6469V513.324ZM88.4841 511.356C88.2761 511.356 88.1001 511.284 87.9561 511.14C87.8121 510.996 87.7401 510.82 87.7401 510.612C87.7401 510.404 87.8121 510.228 87.9561 510.084C88.1001 509.94 88.2761 509.868 88.4841 509.868C88.6841 509.868 88.8521 509.94 88.9881 510.084C89.1321 510.228 89.2041 510.404 89.2041 510.612C89.2041 510.82 89.1321 510.996 88.9881 511.14C88.8521 511.284 88.6841 511.356 88.4841 511.356ZM89.0121 512.424V519H87.9201V512.424H89.0121ZM91.9652 513.492C92.1572 513.116 92.4292 512.824 92.7812 512.616C93.1412 512.408 93.5772 512.304 94.0892 512.304V513.432H93.8012C92.5772 513.432 91.9652 514.096 91.9652 515.424V519H90.8732V512.424H91.9652V513.492ZM103.258 512.304C103.77 512.304 104.226 512.412 104.626 512.628C105.026 512.836 105.342 513.152 105.574 513.576C105.806 514 105.922 514.516 105.922 515.124V519H104.842V515.28C104.842 514.624 104.678 514.124 104.35 513.78C104.03 513.428 103.594 513.252 103.042 513.252C102.474 513.252 102.022 513.436 101.686 513.804C101.35 514.164 101.182 514.688 101.182 515.376V519H100.102V515.28C100.102 514.624 99.9378 514.124 99.6098 513.78C99.2898 513.428 98.8538 513.252 98.3018 513.252C97.7338 513.252 97.2818 513.436 96.9458 513.804C96.6098 514.164 96.4418 514.688 96.4418 515.376V519H95.3498V512.424H96.4418V513.372C96.6578 513.028 96.9458 512.764 97.3058 512.58C97.6738 512.396 98.0778 512.304 98.5178 512.304C99.0698 512.304 99.5578 512.428 99.9818 512.676C100.406 512.924 100.722 513.288 100.93 513.768C101.114 513.304 101.418 512.944 101.842 512.688C102.266 512.432 102.738 512.304 103.258 512.304ZM107.305 515.688C107.305 515.016 107.441 514.428 107.713 513.924C107.985 513.412 108.357 513.016 108.829 512.736C109.309 512.456 109.841 512.316 110.425 512.316C111.001 512.316 111.501 512.44 111.925 512.688C112.349 512.936 112.665 513.248 112.873 513.624V512.424H113.977V519H112.873V517.776C112.657 518.16 112.333 518.48 111.901 518.736C111.477 518.984 110.981 519.108 110.413 519.108C109.829 519.108 109.301 518.964 108.829 518.676C108.357 518.388 107.985 517.984 107.713 517.464C107.441 516.944 107.305 516.352 107.305 515.688ZM112.873 515.7C112.873 515.204 112.773 514.772 112.573 514.404C112.373 514.036 112.101 513.756 111.757 513.564C111.421 513.364 111.049 513.264 110.641 513.264C110.233 513.264 109.861 513.36 109.525 513.552C109.189 513.744 108.921 514.024 108.721 514.392C108.521 514.76 108.421 515.192 108.421 515.688C108.421 516.192 108.521 516.632 108.721 517.008C108.921 517.376 109.189 517.66 109.525 517.86C109.861 518.052 110.233 518.148 110.641 518.148C111.049 518.148 111.421 518.052 111.757 517.86C112.101 517.66 112.373 517.376 112.573 517.008C112.773 516.632 112.873 516.196 112.873 515.7ZM117.154 513.324V517.2C117.154 517.52 117.222 517.748 117.358 517.884C117.494 518.012 117.73 518.076 118.066 518.076H118.87V519H117.886C117.278 519 116.822 518.86 116.518 518.58C116.214 518.3 116.062 517.84 116.062 517.2V513.324H115.21V512.424H116.062V510.768H117.154V512.424H118.87V513.324H117.154ZM120.758 511.356C120.55 511.356 120.374 511.284 120.23 511.14C120.086 510.996 120.014 510.82 120.014 510.612C120.014 510.404 120.086 510.228 120.23 510.084C120.374 509.94 120.55 509.868 120.758 509.868C120.958 509.868 121.126 509.94 121.262 510.084C121.406 510.228 121.478 510.404 121.478 510.612C121.478 510.82 121.406 510.996 121.262 511.14C121.126 511.284 120.958 511.356 120.758 511.356ZM121.286 512.424V519H120.194V512.424H121.286ZM126.015 519.108C125.399 519.108 124.839 518.968 124.335 518.688C123.839 518.408 123.447 518.012 123.159 517.5C122.879 516.98 122.739 516.38 122.739 515.7C122.739 515.028 122.883 514.436 123.171 513.924C123.467 513.404 123.867 513.008 124.371 512.736C124.875 512.456 125.439 512.316 126.063 512.316C126.687 512.316 127.251 512.456 127.755 512.736C128.259 513.008 128.655 513.4 128.943 513.912C129.239 514.424 129.387 515.02 129.387 515.7C129.387 516.38 129.235 516.98 128.931 517.5C128.635 518.012 128.231 518.408 127.719 518.688C127.207 518.968 126.639 519.108 126.015 519.108ZM126.015 518.148C126.407 518.148 126.775 518.056 127.119 517.872C127.463 517.688 127.739 517.412 127.947 517.044C128.163 516.676 128.271 516.228 128.271 515.7C128.271 515.172 128.167 514.724 127.959 514.356C127.751 513.988 127.479 513.716 127.143 513.54C126.807 513.356 126.443 513.264 126.051 513.264C125.651 513.264 125.283 513.356 124.947 513.54C124.619 513.716 124.355 513.988 124.155 514.356C123.955 514.724 123.855 515.172 123.855 515.7C123.855 516.236 123.951 516.688 124.143 517.056C124.343 517.424 124.607 517.7 124.935 517.884C125.263 518.06 125.623 518.148 126.015 518.148ZM134.026 512.304C134.826 512.304 135.474 512.548 135.97 513.036C136.466 513.516 136.714 514.212 136.714 515.124V519H135.634V515.28C135.634 514.624 135.47 514.124 135.142 513.78C134.814 513.428 134.366 513.252 133.798 513.252C133.222 513.252 132.762 513.432 132.418 513.792C132.082 514.152 131.914 514.676 131.914 515.364V519H130.822V512.424H131.914V513.36C132.13 513.024 132.422 512.764 132.79 512.58C133.166 512.396 133.578 512.304 134.026 512.304Z"
        fill="white" />
    <path
        d="M272.016 225.112H274.944V226H270.924V217.636H272.016V225.112ZM275.696 222.688C275.696 222.016 275.832 221.428 276.104 220.924C276.376 220.412 276.748 220.016 277.22 219.736C277.7 219.456 278.232 219.316 278.816 219.316C279.392 219.316 279.892 219.44 280.316 219.688C280.74 219.936 281.056 220.248 281.264 220.624V219.424H282.368V226H281.264V224.776C281.048 225.16 280.724 225.48 280.292 225.736C279.868 225.984 279.372 226.108 278.804 226.108C278.22 226.108 277.692 225.964 277.22 225.676C276.748 225.388 276.376 224.984 276.104 224.464C275.832 223.944 275.696 223.352 275.696 222.688ZM281.264 222.7C281.264 222.204 281.164 221.772 280.964 221.404C280.764 221.036 280.492 220.756 280.148 220.564C279.812 220.364 279.44 220.264 279.032 220.264C278.624 220.264 278.252 220.36 277.916 220.552C277.58 220.744 277.312 221.024 277.112 221.392C276.912 221.76 276.812 222.192 276.812 222.688C276.812 223.192 276.912 223.632 277.112 224.008C277.312 224.376 277.58 224.66 277.916 224.86C278.252 225.052 278.624 225.148 279.032 225.148C279.44 225.148 279.812 225.052 280.148 224.86C280.492 224.66 280.764 224.376 280.964 224.008C281.164 223.632 281.264 223.196 281.264 222.7ZM287.417 219.304C288.217 219.304 288.865 219.548 289.361 220.036C289.857 220.516 290.105 221.212 290.105 222.124V226H289.025V222.28C289.025 221.624 288.861 221.124 288.533 220.78C288.205 220.428 287.757 220.252 287.189 220.252C286.613 220.252 286.153 220.432 285.809 220.792C285.473 221.152 285.305 221.676 285.305 222.364V226H284.213V219.424H285.305V220.36C285.521 220.024 285.813 219.764 286.181 219.58C286.557 219.396 286.969 219.304 287.417 219.304ZM291.481 222.688C291.481 222.016 291.617 221.428 291.889 220.924C292.161 220.412 292.533 220.016 293.005 219.736C293.485 219.456 294.021 219.316 294.613 219.316C295.125 219.316 295.601 219.436 296.041 219.676C296.481 219.908 296.817 220.216 297.049 220.6V217.12H298.153V226H297.049V224.764C296.833 225.156 296.513 225.48 296.089 225.736C295.665 225.984 295.169 226.108 294.601 226.108C294.017 226.108 293.485 225.964 293.005 225.676C292.533 225.388 292.161 224.984 291.889 224.464C291.617 223.944 291.481 223.352 291.481 222.688ZM297.049 222.7C297.049 222.204 296.949 221.772 296.749 221.404C296.549 221.036 296.277 220.756 295.933 220.564C295.597 220.364 295.225 220.264 294.817 220.264C294.409 220.264 294.037 220.36 293.701 220.552C293.365 220.744 293.097 221.024 292.897 221.392C292.697 221.76 292.597 222.192 292.597 222.688C292.597 223.192 292.697 223.632 292.897 224.008C293.097 224.376 293.365 224.66 293.701 224.86C294.037 225.052 294.409 225.148 294.817 225.148C295.225 225.148 295.597 225.052 295.933 224.86C296.277 224.66 296.549 224.376 296.749 224.008C296.949 223.632 297.049 223.196 297.049 222.7ZM300.562 218.356C300.354 218.356 300.178 218.284 300.034 218.14C299.89 217.996 299.818 217.82 299.818 217.612C299.818 217.404 299.89 217.228 300.034 217.084C300.178 216.94 300.354 216.868 300.562 216.868C300.762 216.868 300.93 216.94 301.066 217.084C301.21 217.228 301.282 217.404 301.282 217.612C301.282 217.82 301.21 217.996 301.066 218.14C300.93 218.284 300.762 218.356 300.562 218.356ZM301.09 219.424V226H299.998V219.424H301.09ZM306.155 219.304C306.955 219.304 307.603 219.548 308.099 220.036C308.595 220.516 308.843 221.212 308.843 222.124V226H307.763V222.28C307.763 221.624 307.599 221.124 307.271 220.78C306.943 220.428 306.495 220.252 305.927 220.252C305.351 220.252 304.891 220.432 304.547 220.792C304.211 221.152 304.043 221.676 304.043 222.364V226H302.951V219.424H304.043V220.36C304.259 220.024 304.551 219.764 304.919 219.58C305.295 219.396 305.707 219.304 306.155 219.304ZM313.339 219.316C313.907 219.316 314.403 219.44 314.827 219.688C315.259 219.936 315.579 220.248 315.787 220.624V219.424H316.891V226.144C316.891 226.744 316.763 227.276 316.507 227.74C316.251 228.212 315.883 228.58 315.403 228.844C314.931 229.108 314.379 229.24 313.747 229.24C312.883 229.24 312.163 229.036 311.587 228.628C311.011 228.22 310.671 227.664 310.567 226.96H311.647C311.767 227.36 312.015 227.68 312.391 227.92C312.767 228.168 313.219 228.292 313.747 228.292C314.347 228.292 314.835 228.104 315.211 227.728C315.595 227.352 315.787 226.824 315.787 226.144V224.764C315.571 225.148 315.251 225.468 314.827 225.724C314.403 225.98 313.907 226.108 313.339 226.108C312.755 226.108 312.223 225.964 311.743 225.676C311.271 225.388 310.899 224.984 310.627 224.464C310.355 223.944 310.219 223.352 310.219 222.688C310.219 222.016 310.355 221.428 310.627 220.924C310.899 220.412 311.271 220.016 311.743 219.736C312.223 219.456 312.755 219.316 313.339 219.316ZM315.787 222.7C315.787 222.204 315.687 221.772 315.487 221.404C315.287 221.036 315.015 220.756 314.671 220.564C314.335 220.364 313.963 220.264 313.555 220.264C313.147 220.264 312.775 220.36 312.439 220.552C312.103 220.744 311.835 221.024 311.635 221.392C311.435 221.76 311.335 222.192 311.335 222.688C311.335 223.192 311.435 223.632 311.635 224.008C311.835 224.376 312.103 224.66 312.439 224.86C312.775 225.052 313.147 225.148 313.555 225.148C313.963 225.148 314.335 225.052 314.671 224.86C315.015 224.66 315.287 224.376 315.487 224.008C315.687 223.632 315.787 223.196 315.787 222.7ZM276.516 236.084C276.516 236.78 276.276 237.36 275.796 237.824C275.324 238.28 274.6 238.508 273.624 238.508H272.016V242H270.924V233.636H273.624C274.568 233.636 275.284 233.864 275.772 234.32C276.268 234.776 276.516 235.364 276.516 236.084ZM273.624 237.608C274.232 237.608 274.68 237.476 274.968 237.212C275.256 236.948 275.4 236.572 275.4 236.084C275.4 235.052 274.808 234.536 273.624 234.536H272.016V237.608H273.624ZM277.465 238.688C277.465 238.016 277.601 237.428 277.873 236.924C278.145 236.412 278.517 236.016 278.989 235.736C279.469 235.456 280.001 235.316 280.585 235.316C281.161 235.316 281.661 235.44 282.085 235.688C282.509 235.936 282.825 236.248 283.033 236.624V235.424H284.137V242H283.033V240.776C282.817 241.16 282.493 241.48 282.061 241.736C281.637 241.984 281.141 242.108 280.573 242.108C279.989 242.108 279.461 241.964 278.989 241.676C278.517 241.388 278.145 240.984 277.873 240.464C277.601 239.944 277.465 239.352 277.465 238.688ZM283.033 238.7C283.033 238.204 282.933 237.772 282.733 237.404C282.533 237.036 282.261 236.756 281.917 236.564C281.581 236.364 281.209 236.264 280.801 236.264C280.393 236.264 280.021 236.36 279.685 236.552C279.349 236.744 279.081 237.024 278.881 237.392C278.681 237.76 278.581 238.192 278.581 238.688C278.581 239.192 278.681 239.632 278.881 240.008C279.081 240.376 279.349 240.66 279.685 240.86C280.021 241.052 280.393 241.148 280.801 241.148C281.209 241.148 281.581 241.052 281.917 240.86C282.261 240.66 282.533 240.376 282.733 240.008C282.933 239.632 283.033 239.196 283.033 238.7ZM288.695 235.316C289.263 235.316 289.759 235.44 290.183 235.688C290.615 235.936 290.935 236.248 291.143 236.624V235.424H292.247V242.144C292.247 242.744 292.119 243.276 291.863 243.74C291.607 244.212 291.239 244.58 290.759 244.844C290.287 245.108 289.735 245.24 289.103 245.24C288.239 245.24 287.519 245.036 286.943 244.628C286.367 244.22 286.027 243.664 285.923 242.96H287.003C287.123 243.36 287.371 243.68 287.747 243.92C288.123 244.168 288.575 244.292 289.103 244.292C289.703 244.292 290.191 244.104 290.567 243.728C290.951 243.352 291.143 242.824 291.143 242.144V240.764C290.927 241.148 290.607 241.468 290.183 241.724C289.759 241.98 289.263 242.108 288.695 242.108C288.111 242.108 287.579 241.964 287.099 241.676C286.627 241.388 286.255 240.984 285.983 240.464C285.711 239.944 285.575 239.352 285.575 238.688C285.575 238.016 285.711 237.428 285.983 236.924C286.255 236.412 286.627 236.016 287.099 235.736C287.579 235.456 288.111 235.316 288.695 235.316ZM291.143 238.7C291.143 238.204 291.043 237.772 290.843 237.404C290.643 237.036 290.371 236.756 290.027 236.564C289.691 236.364 289.319 236.264 288.911 236.264C288.503 236.264 288.131 236.36 287.795 236.552C287.459 236.744 287.191 237.024 286.991 237.392C286.791 237.76 286.691 238.192 286.691 238.688C286.691 239.192 286.791 239.632 286.991 240.008C287.191 240.376 287.459 240.66 287.795 240.86C288.131 241.052 288.503 241.148 288.911 241.148C289.319 241.148 289.691 241.052 290.027 240.86C290.371 240.66 290.643 240.376 290.843 240.008C291.043 239.632 291.143 239.196 291.143 238.7ZM300.092 238.46C300.092 238.668 300.08 238.888 300.056 239.12H294.8C294.84 239.768 295.06 240.276 295.46 240.644C295.868 241.004 296.36 241.184 296.936 241.184C297.408 241.184 297.8 241.076 298.112 240.86C298.432 240.636 298.656 240.34 298.784 239.972H299.96C299.784 240.604 299.432 241.12 298.904 241.52C298.376 241.912 297.72 242.108 296.936 242.108C296.312 242.108 295.752 241.968 295.256 241.688C294.768 241.408 294.384 241.012 294.104 240.5C293.824 239.98 293.684 239.38 293.684 238.7C293.684 238.02 293.82 237.424 294.092 236.912C294.364 236.4 294.744 236.008 295.232 235.736C295.728 235.456 296.296 235.316 296.936 235.316C297.56 235.316 298.112 235.452 298.592 235.724C299.072 235.996 299.44 236.372 299.696 236.852C299.96 237.324 300.092 237.86 300.092 238.46ZM298.964 238.232C298.964 237.816 298.872 237.46 298.688 237.164C298.504 236.86 298.252 236.632 297.932 236.48C297.62 236.32 297.272 236.24 296.888 236.24C296.336 236.24 295.864 236.416 295.472 236.768C295.088 237.12 294.868 237.608 294.812 238.232H298.964Z"
        fill="white" />
    <path
        d="M270.516 277.812C270.516 276.996 270.7 276.264 271.068 275.616C271.436 274.96 271.936 274.448 272.568 274.08C273.208 273.712 273.916 273.528 274.692 273.528C275.604 273.528 276.4 273.748 277.08 274.188C277.76 274.628 278.256 275.252 278.568 276.06H277.26C277.028 275.556 276.692 275.168 276.252 274.896C275.82 274.624 275.3 274.488 274.692 274.488C274.108 274.488 273.584 274.624 273.12 274.896C272.656 275.168 272.292 275.556 272.028 276.06C271.764 276.556 271.632 277.14 271.632 277.812C271.632 278.476 271.764 279.06 272.028 279.564C272.292 280.06 272.656 280.444 273.12 280.716C273.584 280.988 274.108 281.124 274.692 281.124C275.3 281.124 275.82 280.992 276.252 280.728C276.692 280.456 277.028 280.068 277.26 279.564H278.568C278.256 280.364 277.76 280.984 277.08 281.424C276.4 281.856 275.604 282.072 274.692 282.072C273.916 282.072 273.208 281.892 272.568 281.532C271.936 281.164 271.436 280.656 271.068 280.008C270.7 279.36 270.516 278.628 270.516 277.812ZM283.458 275.304C283.954 275.304 284.402 275.412 284.802 275.628C285.202 275.836 285.514 276.152 285.738 276.576C285.97 277 286.086 277.516 286.086 278.124V282H285.006V278.28C285.006 277.624 284.842 277.124 284.514 276.78C284.186 276.428 283.738 276.252 283.17 276.252C282.594 276.252 282.134 276.432 281.79 276.792C281.454 277.152 281.286 277.676 281.286 278.364V282H280.194V273.12H281.286V276.36C281.502 276.024 281.798 275.764 282.174 275.58C282.558 275.396 282.986 275.304 283.458 275.304ZM293.869 278.46C293.869 278.668 293.857 278.888 293.833 279.12H288.577C288.617 279.768 288.837 280.276 289.237 280.644C289.645 281.004 290.137 281.184 290.713 281.184C291.185 281.184 291.577 281.076 291.889 280.86C292.209 280.636 292.433 280.34 292.561 279.972H293.737C293.561 280.604 293.209 281.12 292.681 281.52C292.153 281.912 291.497 282.108 290.713 282.108C290.089 282.108 289.529 281.968 289.033 281.688C288.545 281.408 288.161 281.012 287.881 280.5C287.601 279.98 287.461 279.38 287.461 278.7C287.461 278.02 287.597 277.424 287.869 276.912C288.141 276.4 288.521 276.008 289.009 275.736C289.505 275.456 290.073 275.316 290.713 275.316C291.337 275.316 291.889 275.452 292.369 275.724C292.849 275.996 293.217 276.372 293.473 276.852C293.737 277.324 293.869 277.86 293.869 278.46ZM292.741 278.232C292.741 277.816 292.649 277.46 292.465 277.164C292.281 276.86 292.029 276.632 291.709 276.48C291.397 276.32 291.049 276.24 290.665 276.24C290.113 276.24 289.641 276.416 289.249 276.768C288.865 277.12 288.645 277.608 288.589 278.232H292.741ZM294.903 278.7C294.903 278.02 295.039 277.428 295.311 276.924C295.583 276.412 295.959 276.016 296.439 275.736C296.927 275.456 297.483 275.316 298.107 275.316C298.915 275.316 299.579 275.512 300.099 275.904C300.627 276.296 300.975 276.84 301.143 277.536H299.967C299.855 277.136 299.635 276.82 299.307 276.588C298.987 276.356 298.587 276.24 298.107 276.24C297.483 276.24 296.979 276.456 296.595 276.888C296.211 277.312 296.019 277.916 296.019 278.7C296.019 279.492 296.211 280.104 296.595 280.536C296.979 280.968 297.483 281.184 298.107 281.184C298.587 281.184 298.987 281.072 299.307 280.848C299.627 280.624 299.847 280.304 299.967 279.888H301.143C300.967 280.56 300.615 281.1 300.087 281.508C299.559 281.908 298.899 282.108 298.107 282.108C297.483 282.108 296.927 281.968 296.439 281.688C295.959 281.408 295.583 281.012 295.311 280.5C295.039 279.988 294.903 279.388 294.903 278.7ZM306.272 282L303.692 279.096V282H302.6V273.12H303.692V278.34L306.224 275.424H307.748L304.652 278.7L307.76 282H306.272ZM315.767 282.084C314.991 282.084 314.283 281.904 313.643 281.544C313.003 281.176 312.495 280.668 312.119 280.02C311.751 279.364 311.567 278.628 311.567 277.812C311.567 276.996 311.751 276.264 312.119 275.616C312.495 274.96 313.003 274.452 313.643 274.092C314.283 273.724 314.991 273.54 315.767 273.54C316.551 273.54 317.263 273.724 317.903 274.092C318.543 274.452 319.047 274.956 319.415 275.604C319.783 276.252 319.967 276.988 319.967 277.812C319.967 278.636 319.783 279.372 319.415 280.02C319.047 280.668 318.543 281.176 317.903 281.544C317.263 281.904 316.551 282.084 315.767 282.084ZM315.767 281.136C316.351 281.136 316.875 281 317.339 280.728C317.811 280.456 318.179 280.068 318.443 279.564C318.715 279.06 318.851 278.476 318.851 277.812C318.851 277.14 318.715 276.556 318.443 276.06C318.179 275.556 317.815 275.168 317.351 274.896C316.887 274.624 316.359 274.488 315.767 274.488C315.175 274.488 314.647 274.624 314.183 274.896C313.719 275.168 313.351 275.556 313.079 276.06C312.815 276.556 312.683 277.14 312.683 277.812C312.683 278.476 312.815 279.06 313.079 279.564C313.351 280.068 313.719 280.456 314.183 280.728C314.655 281 315.183 281.136 315.767 281.136ZM327.24 275.424V282H326.148V281.028C325.94 281.364 325.648 281.628 325.272 281.82C324.904 282.004 324.496 282.096 324.048 282.096C323.536 282.096 323.076 281.992 322.668 281.784C322.26 281.568 321.936 281.248 321.696 280.824C321.464 280.4 321.348 279.884 321.348 279.276V275.424H322.428V279.132C322.428 279.78 322.592 280.28 322.92 280.632C323.248 280.976 323.696 281.148 324.264 281.148C324.848 281.148 325.308 280.968 325.644 280.608C325.98 280.248 326.148 279.724 326.148 279.036V275.424H327.24ZM330.416 276.324V280.2C330.416 280.52 330.484 280.748 330.62 280.884C330.756 281.012 330.992 281.076 331.328 281.076H332.132V282H331.148C330.54 282 330.084 281.86 329.78 281.58C329.476 281.3 329.324 280.84 329.324 280.2V276.324H328.472V275.424H329.324V273.768H330.416V275.424H332.132V276.324H330.416Z"
        fill="white" />
    <path
        d="M244.247 354.084C243.471 354.084 242.763 353.904 242.123 353.544C241.483 353.176 240.975 352.668 240.599 352.02C240.231 351.364 240.047 350.628 240.047 349.812C240.047 348.996 240.231 348.264 240.599 347.616C240.975 346.96 241.483 346.452 242.123 346.092C242.763 345.724 243.471 345.54 244.247 345.54C245.031 345.54 245.743 345.724 246.383 346.092C247.023 346.452 247.527 346.956 247.895 347.604C248.263 348.252 248.447 348.988 248.447 349.812C248.447 350.636 248.263 351.372 247.895 352.02C247.527 352.668 247.023 353.176 246.383 353.544C245.743 353.904 245.031 354.084 244.247 354.084ZM244.247 353.136C244.831 353.136 245.355 353 245.819 352.728C246.291 352.456 246.659 352.068 246.923 351.564C247.195 351.06 247.331 350.476 247.331 349.812C247.331 349.14 247.195 348.556 246.923 348.06C246.659 347.556 246.295 347.168 245.831 346.896C245.367 346.624 244.839 346.488 244.247 346.488C243.655 346.488 243.127 346.624 242.663 346.896C242.199 347.168 241.831 347.556 241.559 348.06C241.295 348.556 241.163 349.14 241.163 349.812C241.163 350.476 241.295 351.06 241.559 351.564C241.831 352.068 242.199 352.456 242.663 352.728C243.135 353 243.663 353.136 244.247 353.136ZM250.981 348.492C251.173 348.116 251.445 347.824 251.797 347.616C252.157 347.408 252.593 347.304 253.105 347.304V348.432H252.817C251.593 348.432 250.981 349.096 250.981 350.424V354H249.889V347.424H250.981V348.492ZM253.957 350.688C253.957 350.016 254.093 349.428 254.365 348.924C254.637 348.412 255.009 348.016 255.481 347.736C255.961 347.456 256.497 347.316 257.089 347.316C257.601 347.316 258.077 347.436 258.517 347.676C258.957 347.908 259.293 348.216 259.525 348.6V345.12H260.629V354H259.525V352.764C259.309 353.156 258.989 353.48 258.565 353.736C258.141 353.984 257.645 354.108 257.077 354.108C256.493 354.108 255.961 353.964 255.481 353.676C255.009 353.388 254.637 352.984 254.365 352.464C254.093 351.944 253.957 351.352 253.957 350.688ZM259.525 350.7C259.525 350.204 259.425 349.772 259.225 349.404C259.025 349.036 258.753 348.756 258.409 348.564C258.073 348.364 257.701 348.264 257.293 348.264C256.885 348.264 256.513 348.36 256.177 348.552C255.841 348.744 255.573 349.024 255.373 349.392C255.173 349.76 255.073 350.192 255.073 350.688C255.073 351.192 255.173 351.632 255.373 352.008C255.573 352.376 255.841 352.66 256.177 352.86C256.513 353.052 256.885 353.148 257.293 353.148C257.701 353.148 258.073 353.052 258.409 352.86C258.753 352.66 259.025 352.376 259.225 352.008C259.425 351.632 259.525 351.196 259.525 350.7ZM268.475 350.46C268.475 350.668 268.463 350.888 268.439 351.12H263.183C263.223 351.768 263.443 352.276 263.843 352.644C264.251 353.004 264.743 353.184 265.319 353.184C265.791 353.184 266.183 353.076 266.495 352.86C266.815 352.636 267.039 352.34 267.167 351.972H268.343C268.167 352.604 267.815 353.12 267.287 353.52C266.759 353.912 266.103 354.108 265.319 354.108C264.695 354.108 264.135 353.968 263.639 353.688C263.151 353.408 262.767 353.012 262.487 352.5C262.207 351.98 262.067 351.38 262.067 350.7C262.067 350.02 262.203 349.424 262.475 348.912C262.747 348.4 263.127 348.008 263.615 347.736C264.111 347.456 264.679 347.316 265.319 347.316C265.943 347.316 266.495 347.452 266.975 347.724C267.455 347.996 267.823 348.372 268.079 348.852C268.343 349.324 268.475 349.86 268.475 350.46ZM267.347 350.232C267.347 349.816 267.255 349.46 267.071 349.164C266.887 348.86 266.635 348.632 266.315 348.48C266.003 348.32 265.655 348.24 265.271 348.24C264.719 348.24 264.247 348.416 263.855 348.768C263.471 349.12 263.251 349.608 263.195 350.232H267.347ZM271.008 348.492C271.2 348.116 271.472 347.824 271.824 347.616C272.184 347.408 272.62 347.304 273.132 347.304V348.432H272.844C271.62 348.432 271.008 349.096 271.008 350.424V354H269.916V347.424H271.008V348.492ZM217.442 365.812C217.442 364.996 217.626 364.264 217.994 363.616C218.362 362.96 218.862 362.448 219.494 362.08C220.134 361.712 220.842 361.528 221.618 361.528C222.53 361.528 223.326 361.748 224.006 362.188C224.686 362.628 225.182 363.252 225.494 364.06H224.186C223.954 363.556 223.618 363.168 223.178 362.896C222.746 362.624 222.226 362.488 221.618 362.488C221.034 362.488 220.51 362.624 220.046 362.896C219.582 363.168 219.218 363.556 218.954 364.06C218.69 364.556 218.558 365.14 218.558 365.812C218.558 366.476 218.69 367.06 218.954 367.564C219.218 368.06 219.582 368.444 220.046 368.716C220.51 368.988 221.034 369.124 221.618 369.124C222.226 369.124 222.746 368.992 223.178 368.728C223.618 368.456 223.954 368.068 224.186 367.564H225.494C225.182 368.364 224.686 368.984 224.006 369.424C223.326 369.856 222.53 370.072 221.618 370.072C220.842 370.072 220.134 369.892 219.494 369.532C218.862 369.164 218.362 368.656 217.994 368.008C217.626 367.36 217.442 366.628 217.442 365.812ZM229.987 370.108C229.371 370.108 228.811 369.968 228.307 369.688C227.811 369.408 227.419 369.012 227.131 368.5C226.851 367.98 226.711 367.38 226.711 366.7C226.711 366.028 226.855 365.436 227.143 364.924C227.439 364.404 227.839 364.008 228.343 363.736C228.847 363.456 229.411 363.316 230.035 363.316C230.659 363.316 231.223 363.456 231.727 363.736C232.231 364.008 232.627 364.4 232.915 364.912C233.211 365.424 233.359 366.02 233.359 366.7C233.359 367.38 233.207 367.98 232.903 368.5C232.607 369.012 232.203 369.408 231.691 369.688C231.179 369.968 230.611 370.108 229.987 370.108ZM229.987 369.148C230.379 369.148 230.747 369.056 231.091 368.872C231.435 368.688 231.711 368.412 231.919 368.044C232.135 367.676 232.243 367.228 232.243 366.7C232.243 366.172 232.139 365.724 231.931 365.356C231.723 364.988 231.451 364.716 231.115 364.54C230.779 364.356 230.415 364.264 230.023 364.264C229.623 364.264 229.255 364.356 228.919 364.54C228.591 364.716 228.327 364.988 228.127 365.356C227.927 365.724 227.827 366.172 227.827 366.7C227.827 367.236 227.923 367.688 228.115 368.056C228.315 368.424 228.579 368.7 228.907 368.884C229.235 369.06 229.595 369.148 229.987 369.148ZM237.999 363.304C238.799 363.304 239.447 363.548 239.943 364.036C240.439 364.516 240.687 365.212 240.687 366.124V370H239.607V366.28C239.607 365.624 239.443 365.124 239.115 364.78C238.787 364.428 238.339 364.252 237.771 364.252C237.195 364.252 236.735 364.432 236.391 364.792C236.055 365.152 235.887 365.676 235.887 366.364V370H234.795V363.424H235.887V364.36C236.103 364.024 236.395 363.764 236.763 363.58C237.139 363.396 237.551 363.304 237.999 363.304ZM245.147 364.324H243.767V370H242.675V364.324H241.823V363.424H242.675V362.956C242.675 362.22 242.863 361.684 243.239 361.348C243.623 361.004 244.235 360.832 245.075 360.832V361.744C244.595 361.744 244.255 361.84 244.055 362.032C243.863 362.216 243.767 362.524 243.767 362.956V363.424H245.147V364.324ZM246.984 362.356C246.776 362.356 246.6 362.284 246.456 362.14C246.312 361.996 246.24 361.82 246.24 361.612C246.24 361.404 246.312 361.228 246.456 361.084C246.6 360.94 246.776 360.868 246.984 360.868C247.184 360.868 247.352 360.94 247.488 361.084C247.632 361.228 247.704 361.404 247.704 361.612C247.704 361.82 247.632 361.996 247.488 362.14C247.352 362.284 247.184 362.356 246.984 362.356ZM247.512 363.424V370H246.42V363.424H247.512ZM250.465 364.492C250.657 364.116 250.929 363.824 251.281 363.616C251.641 363.408 252.077 363.304 252.589 363.304V364.432H252.301C251.077 364.432 250.465 365.096 250.465 366.424V370H249.373V363.424H250.465V364.492ZM261.758 363.304C262.27 363.304 262.726 363.412 263.126 363.628C263.526 363.836 263.842 364.152 264.074 364.576C264.306 365 264.422 365.516 264.422 366.124V370H263.342V366.28C263.342 365.624 263.178 365.124 262.85 364.78C262.53 364.428 262.094 364.252 261.542 364.252C260.974 364.252 260.522 364.436 260.186 364.804C259.85 365.164 259.682 365.688 259.682 366.376V370H258.602V366.28C258.602 365.624 258.438 365.124 258.11 364.78C257.79 364.428 257.354 364.252 256.802 364.252C256.234 364.252 255.782 364.436 255.446 364.804C255.11 365.164 254.942 365.688 254.942 366.376V370H253.85V363.424H254.942V364.372C255.158 364.028 255.446 363.764 255.806 363.58C256.174 363.396 256.578 363.304 257.018 363.304C257.57 363.304 258.058 363.428 258.482 363.676C258.906 363.924 259.222 364.288 259.43 364.768C259.614 364.304 259.918 363.944 260.342 363.688C260.766 363.432 261.238 363.304 261.758 363.304ZM265.805 366.688C265.805 366.016 265.941 365.428 266.213 364.924C266.485 364.412 266.857 364.016 267.329 363.736C267.809 363.456 268.341 363.316 268.925 363.316C269.501 363.316 270.001 363.44 270.425 363.688C270.849 363.936 271.165 364.248 271.373 364.624V363.424H272.477V370H271.373V368.776C271.157 369.16 270.833 369.48 270.401 369.736C269.977 369.984 269.481 370.108 268.913 370.108C268.329 370.108 267.801 369.964 267.329 369.676C266.857 369.388 266.485 368.984 266.213 368.464C265.941 367.944 265.805 367.352 265.805 366.688ZM271.373 366.7C271.373 366.204 271.273 365.772 271.073 365.404C270.873 365.036 270.601 364.756 270.257 364.564C269.921 364.364 269.549 364.264 269.141 364.264C268.733 364.264 268.361 364.36 268.025 364.552C267.689 364.744 267.421 365.024 267.221 365.392C267.021 365.76 266.921 366.192 266.921 366.688C266.921 367.192 267.021 367.632 267.221 368.008C267.421 368.376 267.689 368.66 268.025 368.86C268.361 369.052 268.733 369.148 269.141 369.148C269.549 369.148 269.921 369.052 270.257 368.86C270.601 368.66 270.873 368.376 271.073 368.008C271.273 367.632 271.373 367.196 271.373 366.7ZM275.654 364.324V368.2C275.654 368.52 275.722 368.748 275.858 368.884C275.994 369.012 276.23 369.076 276.566 369.076H277.37V370H276.386C275.778 370 275.322 369.86 275.018 369.58C274.714 369.3 274.562 368.84 274.562 368.2V364.324H273.71V363.424H274.562V361.768H275.654V363.424H277.37V364.324H275.654ZM279.258 362.356C279.05 362.356 278.874 362.284 278.73 362.14C278.586 361.996 278.514 361.82 278.514 361.612C278.514 361.404 278.586 361.228 278.73 361.084C278.874 360.94 279.05 360.868 279.258 360.868C279.458 360.868 279.626 360.94 279.762 361.084C279.906 361.228 279.978 361.404 279.978 361.612C279.978 361.82 279.906 361.996 279.762 362.14C279.626 362.284 279.458 362.356 279.258 362.356ZM279.786 363.424V370H278.694V363.424H279.786ZM284.515 370.108C283.899 370.108 283.339 369.968 282.835 369.688C282.339 369.408 281.947 369.012 281.659 368.5C281.379 367.98 281.239 367.38 281.239 366.7C281.239 366.028 281.383 365.436 281.671 364.924C281.967 364.404 282.367 364.008 282.871 363.736C283.375 363.456 283.939 363.316 284.563 363.316C285.187 363.316 285.751 363.456 286.255 363.736C286.759 364.008 287.155 364.4 287.443 364.912C287.739 365.424 287.887 366.02 287.887 366.7C287.887 367.38 287.735 367.98 287.431 368.5C287.135 369.012 286.731 369.408 286.219 369.688C285.707 369.968 285.139 370.108 284.515 370.108ZM284.515 369.148C284.907 369.148 285.275 369.056 285.619 368.872C285.963 368.688 286.239 368.412 286.447 368.044C286.663 367.676 286.771 367.228 286.771 366.7C286.771 366.172 286.667 365.724 286.459 365.356C286.251 364.988 285.979 364.716 285.643 364.54C285.307 364.356 284.943 364.264 284.551 364.264C284.151 364.264 283.783 364.356 283.447 364.54C283.119 364.716 282.855 364.988 282.655 365.356C282.455 365.724 282.355 366.172 282.355 366.7C282.355 367.236 282.451 367.688 282.643 368.056C282.843 368.424 283.107 368.7 283.435 368.884C283.763 369.06 284.123 369.148 284.515 369.148ZM292.526 363.304C293.326 363.304 293.974 363.548 294.47 364.036C294.966 364.516 295.214 365.212 295.214 366.124V370H294.134V366.28C294.134 365.624 293.97 365.124 293.642 364.78C293.314 364.428 292.866 364.252 292.298 364.252C291.722 364.252 291.262 364.432 290.918 364.792C290.582 365.152 290.414 365.676 290.414 366.364V370H289.322V363.424H290.414V364.36C290.63 364.024 290.922 363.764 291.29 363.58C291.666 363.396 292.078 363.304 292.526 363.304Z"
        fill="white" />
    <circle cx="257" cy="230" r="4" fill="#1e3a77" />
    <circle cx="257" cy="278" r="4" fill="#1e3a77" />
    <circle cx="257" cy="326" r="4" fill="#1e3a77" />
    <circle cx="98" cy="230" r="4" fill="#57534A" />
    <circle cx="98" cy="278" r="4" fill="#57534A" />
    <circle cx="98" cy="326" r="4" fill="#57534A" />
    <circle cx="98" cy="374" r="4" fill="#57534A" />
    <circle cx="98" cy="422" r="4" fill="#57534A" />
    <circle cx="98" cy="470" r="4" fill="#57534A" />
    <path
        d="M99.8581 45.25V41.164H102.126C103.728 41.164 104.448 41.92 104.448 43.216C104.448 44.476 103.728 45.25 102.126 45.25H99.8581ZM106.554 43.216C106.554 41.182 105.096 39.49 102.126 39.49H97.8061V52H99.8581V46.924H102.126C105.384 46.924 106.554 44.998 106.554 43.216ZM107.827 46.996C107.827 50.056 109.897 52.162 112.471 52.162C114.127 52.162 115.315 51.37 115.945 50.524V52H118.015V42.082H115.945V43.522C115.333 42.712 114.181 41.92 112.507 41.92C109.897 41.92 107.827 43.936 107.827 46.996ZM115.945 47.032C115.945 49.174 114.487 50.38 112.939 50.38C111.409 50.38 109.933 49.138 109.933 46.996C109.933 44.854 111.409 43.702 112.939 43.702C114.487 43.702 115.945 44.908 115.945 47.032ZM120.71 52H122.762V42.082H120.71V52ZM121.754 40.768C122.474 40.768 123.05 40.192 123.05 39.454C123.05 38.716 122.474 38.14 121.754 38.14C121.016 38.14 120.44 38.716 120.44 39.454C120.44 40.192 121.016 40.768 121.754 40.768ZM124.772 46.996C124.772 50.056 126.842 52.162 129.452 52.162C131.072 52.162 132.26 51.406 132.89 50.506V52H134.96V38.68H132.89V43.468C132.134 42.532 130.766 41.92 129.47 41.92C126.842 41.92 124.772 43.936 124.772 46.996ZM132.89 47.032C132.89 49.174 131.432 50.38 129.884 50.38C128.354 50.38 126.878 49.138 126.878 46.996C126.878 44.854 128.354 43.702 129.884 43.702C131.432 43.702 132.89 44.908 132.89 47.032ZM142.331 52H144.383V43.432L148.217 52H149.639L153.455 43.432V52H155.507V39.49H153.311L148.937 49.3L144.545 39.49H142.331V52ZM162.38 43.648C163.91 43.648 165.116 44.62 165.152 46.15H159.662C159.878 44.584 160.994 43.648 162.38 43.648ZM167.024 49.048H164.81C164.432 49.822 163.73 50.434 162.47 50.434C160.958 50.434 159.788 49.444 159.644 47.806H167.222C167.276 47.464 167.294 47.14 167.294 46.798C167.294 43.882 165.296 41.92 162.47 41.92C159.536 41.92 157.52 43.918 157.52 47.032C157.52 50.146 159.626 52.162 162.47 52.162C164.9 52.162 166.466 50.776 167.024 49.048ZM168.63 46.996C168.63 50.056 170.7 52.162 173.31 52.162C174.93 52.162 176.118 51.406 176.748 50.506V52H178.818V38.68H176.748V43.468C175.992 42.532 174.624 41.92 173.328 41.92C170.7 41.92 168.63 43.936 168.63 46.996ZM176.748 47.032C176.748 49.174 175.29 50.38 173.742 50.38C172.212 50.38 170.736 49.138 170.736 46.996C170.736 44.854 172.212 43.702 173.742 43.702C175.29 43.702 176.748 44.908 176.748 47.032ZM181.513 52H183.565V42.082H181.513V52ZM182.557 40.768C183.277 40.768 183.853 40.192 183.853 39.454C183.853 38.716 183.277 38.14 182.557 38.14C181.819 38.14 181.243 38.716 181.243 39.454C181.243 40.192 181.819 40.768 182.557 40.768ZM185.575 46.996C185.575 50.056 187.645 52.162 190.219 52.162C191.875 52.162 193.063 51.37 193.693 50.524V52H195.763V42.082H193.693V43.522C193.081 42.712 191.929 41.92 190.255 41.92C187.645 41.92 185.575 43.936 185.575 46.996ZM193.693 47.032C193.693 49.174 192.235 50.38 190.687 50.38C189.157 50.38 187.681 49.138 187.681 46.996C187.681 44.854 189.157 43.702 190.687 43.702C192.235 43.702 193.693 44.908 193.693 47.032ZM202.486 41.164H205.834V52L207.886 52V41.164H211.216V39.49H202.486V41.164ZM215.346 46.78C215.346 44.674 216.282 44.044 217.794 44.044H218.316V41.92C216.912 41.92 215.922 42.532 215.346 43.522V42.082H213.294V52H215.346V46.78ZM219.519 46.996C219.519 50.056 221.589 52.162 224.163 52.162C225.819 52.162 227.007 51.37 227.637 50.524V52L229.707 52V42.082H227.637V43.522C227.025 42.712 225.873 41.92 224.199 41.92C221.589 41.92 219.519 43.936 219.519 46.996ZM227.637 47.032C227.637 49.174 226.179 50.38 224.631 50.38C223.101 50.38 221.625 49.138 221.625 46.996C221.625 44.854 223.101 43.702 224.631 43.702C226.179 43.702 227.637 44.908 227.637 47.032ZM232.654 52H234.724V43.756L236.56 43.756V42.082L234.724 42.082V41.38C234.724 40.246 235.156 39.814 236.416 39.814V38.104C233.824 38.104 232.654 39.094 232.654 41.38V42.082H231.484V43.756H232.654V52ZM238.63 52H240.7V43.756H242.536V42.082H240.7V41.38C240.7 40.246 241.132 39.814 242.392 39.814V38.104C239.8 38.104 238.63 39.094 238.63 41.38V42.082H237.46V43.756H238.63V52ZM244.355 52H246.407V42.082H244.355V52ZM245.399 40.768C246.119 40.768 246.695 40.192 246.695 39.454C246.695 38.716 246.119 38.14 245.399 38.14C244.661 38.14 244.085 38.716 244.085 39.454C244.085 40.192 244.661 40.768 245.399 40.768ZM248.417 47.032C248.417 50.146 250.433 52.162 253.277 52.162C255.707 52.162 257.291 50.812 257.849 48.868H255.635C255.257 49.894 254.501 50.434 253.277 50.434C251.621 50.434 250.523 49.21 250.523 47.032C250.523 44.872 251.621 43.648 253.277 43.648C254.501 43.648 255.293 44.26 255.635 45.214H257.849C257.291 43.126 255.707 41.92 253.277 41.92C250.433 41.92 248.417 43.936 248.417 47.032Z"
        fill="white" />
    <circle cx="98" cy="470" r="11" fill="#FF6A2C" />
    <path
        d="M98.1036 464.08C99.1596 464.08 100.007 464.37 100.647 464.948C101.297 465.517 101.622 466.304 101.622 467.309C101.622 468.304 101.302 469.066 100.662 469.594C100.023 470.112 99.1749 470.371 98.1189 470.371L98.0579 471.543H96.1845L96.1084 468.954H96.7938C97.6772 468.954 98.3575 468.837 98.8347 468.604C99.3119 468.37 99.5505 467.944 99.5505 467.324C99.5505 466.878 99.4185 466.522 99.1545 466.258C98.9007 465.994 98.5504 465.862 98.1036 465.862C97.6365 465.862 97.271 465.989 97.007 466.243C96.7532 466.497 96.6262 466.847 96.6262 467.294H94.6158C94.6056 466.675 94.7376 466.121 95.0118 465.634C95.2859 465.146 95.687 464.766 96.215 464.492C96.7532 464.217 97.3827 464.08 98.1036 464.08ZM97.1136 475.184C96.7278 475.184 96.4079 475.067 96.1541 474.833C95.9104 474.59 95.7885 474.29 95.7885 473.935C95.7885 473.579 95.9104 473.285 96.1541 473.051C96.4079 472.808 96.7278 472.686 97.1136 472.686C97.4893 472.686 97.799 472.808 98.0427 473.051C98.2864 473.285 98.4082 473.579 98.4082 473.935C98.4082 474.29 98.2864 474.59 98.0427 474.833C97.799 475.067 97.4893 475.184 97.1136 475.184Z"
        fill="white" />
    <circle cx="257" cy="326" r="11" fill="#3B82F6" />
    <path d="M251.812 327.869L256.227 330.308L262.085 320.588" stroke="#262420" stroke-Width="2" />
    <path
        d="M135.822 6.66702C134.988 6.66702 134.217 6.38915 133.6 5.92221C132.892 5.38651 132.381 4.59873 132.201 3.69349C132.155 3.47005 132.132 3.23801 132.13 3.00024L129.745 3.00024L129.745 9.53456L129.742 13.1125C129.742 14.0693 129.12 14.88 128.26 15.1665C128.009 15.2496 127.74 15.2897 127.461 15.2725C127.101 15.2524 126.767 15.1436 126.473 14.9688C125.85 14.5964 125.43 13.9204 125.419 13.144C125.402 11.9352 126.375 10.9468 127.581 10.9468C127.818 10.9468 128.046 10.9869 128.26 11.0557L128.26 9.27101L128.26 8.63219C128.035 8.59781 127.806 8.58062 127.572 8.58062C126.253 8.58062 125.019 9.13064 124.137 10.1218C123.471 10.8695 123.071 11.8263 123.009 12.8289C122.929 14.1438 123.408 15.3957 124.339 16.3181C124.476 16.4527 124.619 16.5788 124.771 16.6962C125.567 17.3121 126.544 17.6473 127.572 17.6473C127.803 17.6473 128.035 17.6301 128.26 17.5957C129.22 17.4525 130.105 17.0113 130.805 16.3181C131.664 15.4673 132.138 14.3357 132.144 13.1326L132.132 7.78711C132.541 8.10509 132.989 8.36577 133.472 8.56916C134.22 8.88714 135.014 9.0447 135.828 9.0447L135.828 7.30871L135.828 6.66416C135.831 6.66702 135.822 6.66702 135.822 6.66702Z"
        fill="white" />
    <path fill-rule="evenodd" clip-rule="evenodd"
        d="M165.964 6.4101C165.931 5.61151 165.811 5.06542 165.638 4.58979C165.46 4.0848 165.186 3.63559 164.83 3.25979C164.479 2.87811 164.054 2.58157 163.591 2.3966C163.145 2.21164 162.638 2.08245 161.892 2.04722C161.141 2.00905 160.903 2.00024 159.001 2.00024C157.1 2.00024 156.861 2.00905 156.116 2.04429C155.371 2.07951 154.861 2.2087 154.417 2.39367C153.946 2.5845 153.526 2.87811 153.176 3.25978C152.819 3.63559 152.543 4.09067 152.37 4.58685C152.197 5.06541 152.077 5.60858 152.044 6.40718C152.008 7.21166 152 7.46708 152 9.50173C152 11.5364 152.008 11.7947 152.041 12.5933C152.074 13.3919 152.195 13.938 152.367 14.4136C152.545 14.9186 152.822 15.3678 153.176 15.7436C153.526 16.1253 153.951 16.4218 154.414 16.6068C154.861 16.7918 155.368 16.9209 156.113 16.9562C156.859 16.9914 157.097 17.0002 158.999 17.0002C160.9 17.0002 161.139 16.9914 161.884 16.9562C162.629 16.9209 163.139 16.7918 163.583 16.6068C164.523 16.2163 165.268 15.4207 165.633 14.4106C165.805 13.9321 165.926 13.3889 165.959 12.5904C165.992 11.7888 166 11.5364 166 9.49874C166 7.46118 165.997 7.21166 165.964 6.4101ZM164.704 12.5375C164.674 13.2715 164.559 13.6649 164.463 13.9292C164.227 14.5839 163.742 15.1006 163.134 15.3531C162.887 15.4559 162.514 15.5792 161.835 15.6115C161.095 15.6467 160.876 15.6555 159.007 15.6555C157.138 15.6555 156.913 15.6467 156.179 15.6115C155.494 15.5792 155.127 15.4559 154.88 15.3531C154.576 15.2328 154.299 15.0419 154.077 14.7924C153.844 14.5487 153.666 14.255 153.554 13.9321C153.458 13.6678 153.343 13.2686 153.313 12.5404C153.28 11.7478 153.271 11.5128 153.271 9.51048C153.271 7.50814 153.28 7.26744 153.313 6.48054C153.343 5.74656 153.458 5.35315 153.554 5.08891C153.663 4.76007 153.841 4.46648 154.077 4.22572C154.305 3.97617 154.579 3.78533 154.88 3.66495C155.127 3.56219 155.499 3.43888 156.179 3.40658C156.919 3.37135 157.138 3.36255 159.007 3.36255C160.878 3.36255 161.1 3.37135 161.835 3.40658C162.52 3.43888 162.887 3.56219 163.134 3.66495C163.438 3.78533 163.715 3.97617 163.937 4.22572C164.169 4.46941 164.348 4.76301 164.46 5.08891C164.556 5.35315 164.671 5.75244 164.701 6.48054C164.734 7.27328 164.742 7.50814 164.742 9.51048C164.742 11.5128 164.737 11.7448 164.704 12.5375ZM159.001 5.65081C157.015 5.65081 155.403 7.37714 155.403 9.50571C155.403 11.6343 157.015 13.3607 159.001 13.3607C160.988 13.3607 162.599 11.6343 162.599 9.50571C162.599 7.37714 160.988 5.65081 159.001 5.65081ZM159.001 12.0042C157.713 12.0042 156.667 10.8856 156.667 9.50279C156.667 8.11994 157.711 7.00134 159.001 7.00134C160.289 7.00134 161.336 8.11994 161.336 9.50279C161.336 10.8856 160.292 12.0042 159.001 12.0042ZM162.745 6.39604C163.208 6.39604 163.583 5.99383 163.583 5.49763C163.583 5.00147 163.205 4.59631 162.745 4.59925C162.281 4.59925 161.906 5.00147 161.906 5.49763C161.906 5.99383 162.281 6.39604 162.745 6.39604Z"
        fill="white" />
    <path fill-rule="evenodd" clip-rule="evenodd"
        d="M184.711 5.39145C183.466 5.3837 183.292 6.59533 183.287 7.50824C183.282 8.42114 183.441 9.65126 184.686 9.65901C185.931 9.66557 186.104 8.43843 186.11 7.52434C186.116 6.61084 185.956 5.39801 184.711 5.39145ZM184.673 12.0495C181.435 12.0304 179.986 9.87963 180 7.48915C180.014 5.09748 181.487 2.98129 184.725 3.00037C186.749 3.01155 188.074 3.84922 188.779 5.05983C189.492 3.83235 190.835 2.98854 192.884 3.00062C196.122 3.0191 197.571 5.15259 197.557 7.54366C197.543 9.93474 196.07 12.0682 192.831 12.0497L192.831 12.0503C190.808 12.038 189.483 11.1931 188.777 9.97746C188.065 11.2099 186.722 12.0606 184.673 12.0489L184.673 12.0495ZM192.87 5.3911C191.625 5.38334 191.452 6.59498 191.447 7.50848C191.441 8.42138 191.599 9.65091 192.845 9.65866C194.09 9.66641 194.264 8.43808 194.269 7.52518C194.274 6.61168 194.115 5.39825 192.87 5.39169L192.87 5.3911ZM188.629 13.5709C185.99 13.5554 183.568 13.0927 181.233 12.0498L181.216 14.9221C183.783 16.1331 185.805 16.7091 188.61 16.7258C191.184 16.7401 193.768 16.1033 196.15 14.9221L196.166 12.0498C193.504 13.0635 191.401 13.587 188.629 13.5709Z"
        fill="white" />
    <path fill-rule="evenodd" clip-rule="evenodd"
        d="M221.683 6.82087C220.954 6.12669 220.032 5.77086 219 5.77086C217.174 5.77086 215.629 7.00088 215.074 8.66256L215.074 8.6641C214.934 9.08411 214.853 9.53328 214.853 9.99995C214.853 10.4666 214.928 10.9158 215.074 11.3358L215.074 11.3361C215.628 12.9984 217.174 14.229 219 14.229C219.945 14.229 220.744 13.9724 221.374 13.5524L221.375 13.5535L221.375 13.5527C222.11 13.0569 222.606 12.3277 222.775 11.4644L219.001 11.4644L219.001 8.8335L225.593 8.8335C225.663 9.25933 225.704 9.69684 225.704 10.1577C225.704 12.2869 224.945 14.0835 223.627 15.3027L223.625 15.3027C222.47 16.37 220.889 16.9999 219 16.9999C216.264 16.9999 213.901 15.4249 212.752 13.1382L212.752 13.1372C212.274 12.1925 212 11.1312 212 9.99995C212 8.86842 212.274 7.80689 212.752 6.86198L212.752 6.8617C213.901 4.57501 216.264 3 219 3C220.89 3 222.47 3.69417 223.678 4.82585L221.683 6.82087Z"
        fill="white" />
</svg>